<?xml version="1.0" encoding="utf-8"?>
<!-- Generator: Adobe Illustrator 19.0.0, SVG Export Plug-In . SVG Version: 6.00 Build 0)  -->
<svg version="1.1" id="Layer_1" xmlns="http://www.w3.org/2000/svg" xmlns:xlink="http://www.w3.org/1999/xlink" x="0px" y="0px"
	 viewBox="0 0 450.3 450.3" style="enable-background:new 0 0 450.3 450.3;" xml:space="preserve">
<style type="text/css">
	.st0{fill:#4D6075;stroke:#FFFFFF;stroke-miterlimit:10;}
	.st1{fill:#FDFDFD;}
</style>
<g id="XMLID_132_">
	<path id="XMLID_130_" class="st0" d="M225.2,0C100.8,0,0,100.8,0,225.2s100.8,225.2,225.2,225.2s225.2-100.8,225.2-225.2
		S349.5,0,225.2,0z M221.8,317.4c-49.8,0-90.2-40.4-90.2-90.2s40.4-90.2,90.2-90.2s90.2,40.4,90.2,90.2S271.7,317.4,221.8,317.4z"/>
	<g id="XMLID_131_">
		<path id="XMLID_97_" class="st1" d="M63.3,144c-0.9-0.6-2-1-3.2-1c-0.1,0-0.3,0-0.4,0l0,0c-0.7,0-1.3,0.1-1.9,0.2l0.1,0
			c-0.3-2-1.5-3.7-3.2-4.7l0,0l-0.6-0.4l-0.4,0.6c-0.5,0.8-0.9,1.6-1.1,2.6l0,0.1c-0.1,0.5-0.2,1-0.2,1.6c0,1.2,0.4,2.4,1,3.4l0,0
			c-0.9,0.4-2.1,0.7-3.2,0.8h0H20.6c-0.8,0-1.4,0.6-1.4,1.4l0,0c0,0.1,0,0.2,0,0.3c0,2.6,0.5,5.1,1.3,7.4l0-0.1
			c0.8,2.4,2.4,4.4,4.4,5.8l0,0c2.6,1.3,5.7,2.1,8.9,2.1c0.3,0,0.6,0,0.9,0l0,0c0,0,0.1,0,0.1,0c1.9,0,3.7-0.2,5.5-0.5l-0.2,0
			c2.7-0.5,5.1-1.4,7.2-2.6l-0.1,0.1c1.9-1.1,3.5-2.4,4.8-3.9l0,0c2-2.3,3.6-5,4.7-8l0.1-0.2h0.4c0.1,0,0.2,0,0.3,0
			c1.8,0,3.5-0.7,4.7-1.9l0,0c0.6-0.5,1-1.2,1.3-1.9l0,0l0.2-0.5L63.3,144z M23.3,146.3h3.9c0.2,0,0.3-0.2,0.3-0.3l0,0l0,0v-3.5v0
			c0-0.2-0.2-0.3-0.3-0.3h-3.9c-0.2,0-0.3,0.2-0.3,0.3l0,0v3.5c0,0,0,0,0,0C23,146.1,23.1,146.3,23.3,146.3
			C23.3,146.3,23.3,146.3,23.3,146.3L23.3,146.3L23.3,146.3z M28.8,146.3h3.9c0.2,0,0.3-0.2,0.3-0.3l0,0l0,0v-3.5v0
			c0-0.2-0.2-0.3-0.3-0.3h-3.9l0,0c-0.2,0-0.3,0.2-0.3,0.3l0,0l0,0v3.5C28.4,146.1,28.6,146.3,28.8,146.3L28.8,146.3L28.8,146.3z
			 M34.3,146.3h3.9c0.2,0,0.3-0.2,0.3-0.3l0,0l0,0v-3.5v0c0-0.2-0.2-0.3-0.3-0.3h-3.9c-0.2,0-0.3,0.2-0.3,0.3l0,0v3.5
			C33.9,146.1,34.1,146.3,34.3,146.3L34.3,146.3L34.3,146.3z M39.7,146.3h3.9l0,0c0.2,0,0.3-0.2,0.3-0.3v-3.5l0,0
			c0-0.2-0.2-0.3-0.3-0.3l0,0h-3.9c-0.2,0-0.3,0.2-0.3,0.3l0,0v3.5c0,0,0,0,0,0C39.4,146.1,39.5,146.3,39.7,146.3
			C39.7,146.3,39.7,146.3,39.7,146.3L39.7,146.3z M28.8,141.2h3.9c0.2,0,0.3-0.2,0.3-0.3l0,0l0,0v-3.5l0,0c0-0.2-0.2-0.3-0.3-0.3
			h-3.9c-0.2,0-0.3,0.2-0.3,0.3v3.5C28.4,141.1,28.6,141.2,28.8,141.2L28.8,141.2z M34.3,141.2h3.9c0.2,0,0.3-0.2,0.3-0.3l0,0v-3.5
			l0,0c0-0.2-0.2-0.3-0.3-0.3h-3.9c-0.2,0-0.3,0.2-0.3,0.3l0,0l0,0v3.5C33.9,141.1,34.1,141.2,34.3,141.2L34.3,141.2L34.3,141.2z
			 M39.7,141.2h3.9c0.2,0,0.3-0.2,0.3-0.3v-3.5c0-0.2-0.2-0.3-0.3-0.3h-3.9c-0.2,0-0.3,0.2-0.3,0.3l0,0l0,0v3.5
			C39.4,141.1,39.5,141.2,39.7,141.2L39.7,141.2z M39.7,136.2h3.9l0,0c0.2,0,0.3-0.2,0.3-0.3l0,0l0,0v-3.5c0-0.2-0.2-0.3-0.3-0.3
			l0,0h-3.9c-0.2,0-0.3,0.2-0.3,0.3l0,0v3.5c0,0,0,0,0,0C39.4,136,39.5,136.2,39.7,136.2C39.7,136.2,39.7,136.2,39.7,136.2
			L39.7,136.2L39.7,136.2z M45.2,146.3h3.9l0,0c0.2,0,0.3-0.2,0.3-0.3v-3.5l0,0c0-0.2-0.2-0.3-0.3-0.3l0,0h-3.9l0,0
			c-0.2,0-0.3,0.2-0.3,0.3v3.5C44.8,146.1,45,146.3,45.2,146.3L45.2,146.3L45.2,146.3z"/>
		<g id="XMLID_102_">
			<path id="XMLID_103_" class="st1" d="M137.1,20.7v12.1l10.5,6.1V26.8L137.1,20.7z M159.2,33.6l-10.5-6.1v12.1l10.5,6.1V33.6z
				 M160.3,45.7V33.6l10.5-6.1v12.1L160.3,45.7z M159.2,59.2l-10.5-6.1V41l10.5,6.1V59.2z"/>
		</g>
		<path id="XMLID_112_" class="st1" d="M300.1,55.8h6.3l-1.9,5.9h-4.3V55.8z M300.1,44.6h10l-1.9,5.9h-8.1V44.6z M300.1,33.4h13.7
			l-1.9,5.9h-11.8V33.4z M320,33.4h15.6v5.9h-17.6L320,33.4z M314.4,50.5l2-5.9h19.4v5.9H314.4z M312.6,55.8h23.1v5.9h-25
			L312.6,55.8z"/>
		<g id="Page-1">
			<g id="Dribbble-Light-Preview" transform="translate(-140.000000, -7559.000000)">
				<g id="icons" transform="translate(56.000000, 160.000000)">
					<path id="github-_x5B__x23_142_x5D_" class="st1" d="M498.4,7534.1c12,0,21.8,10,21.8,22.3c0,9.9-6.2,18.2-14.9,21.2
						c-1.1,0.2-1.5-0.5-1.5-1.1c0-0.7,0-3.1,0-6.1c0-2.1-0.7-3.4-1.5-4.1c4.8-0.6,9.9-2.4,9.9-11c0-2.4-0.8-4.4-2.2-6
						c0.2-0.6,1-2.8-0.2-5.9c0,0-1.8-0.6-6,2.3c-1.7-0.5-3.6-0.7-5.4-0.8c-1.8,0-3.7,0.3-5.4,0.8c-4.2-2.9-6-2.3-6-2.3
						c-1.2,3.1-0.4,5.3-0.2,5.9c-1.4,1.6-2.2,3.6-2.2,6c0,8.5,5.1,10.5,9.9,11c-0.6,0.6-1.2,1.5-1.4,3c-1.2,0.6-4.4,1.6-6.3-1.9
						c0,0-1.2-2.1-3.3-2.3c0,0-2.1,0-0.1,1.4c0,0,1.4,0.7,2.4,3.3c0,0,1.3,4,7.3,2.6c0,1.9,0,3.6,0,4.2c0,0.6-0.4,1.3-1.5,1.1
						c-8.6-2.9-14.9-11.3-14.9-21.2C476.6,7544.1,486.4,7534.1,498.4,7534.1"/>
				</g>
			</g>
		</g>
		<path id="XMLID_117_" class="st1" d="M390.1,298l3.7-4.8l13.7-5.6v-4l12,8.8l-24.5,4.8v13.4l-4.8-1.4V298z M429.2,290.8v23.8
			l-9.4,8l-15.1-5v5l-9.7-12.1l24.5,2.9v-21.1L429.2,290.8z"/>
		<g id="_x35_151e0c8492e5103c096af88a51f9b27">
			<path id="XMLID_123_" class="st1" d="M309.4,405.2l6.5-2.6v0l-6.5-2.6v-2.9l9.9,4.4v2.1l-9.9,4.4V405.2z M332.3,408.3v2.6h-11.7
				v-2.6H332.3z M334.5,386.2h-27.4c-1.5,0-2.7,1.2-2.7,2.7v27.4c0,1.5,1.2,2.7,2.7,2.7h27.4c1.5,0,2.7-1.2,2.7-2.7v-27.4
				C337.3,387.4,336,386.2,334.5,386.2z M334.5,416.3h-27.4V393h27.4V416.3L334.5,416.3z"/>
		</g>
		<path id="XMLID_128_" class="st1" d="M131.1,410.4C131.1,410.4,131.1,410.4,131.1,410.4c-0.9,0-1.6,0.7-1.6,1.6s0.7,1.6,1.6,1.6
			c0,0,0,0,0,0h7.5c0,0,0,0,0,0c0.9,0,1.6-0.7,1.6-1.6s-0.7-1.6-1.6-1.6c0,0,0,0,0,0h0L131.1,410.4z M135.9,403
			c0.2-0.3,0.3-0.6,0.3-1c0-0.4-0.2-0.8-0.4-1.2l0,0l-9.5-10.1c-0.3-0.3-0.8-0.5-1.2-0.5c-1,0-1.8,0.8-1.8,1.8
			c0,0.4,0.2,0.8,0.4,1.2l0,0l7.9,8.4v0.2L119,411c-0.4,0.3-0.7,0.8-0.7,1.4c0,1,0.8,1.8,1.8,1.8c0.4,0,0.7-0.1,1-0.3l0,0l13.9-10
			C135.4,403.6,135.6,403.4,135.9,403L135.9,403L135.9,403z M150,387.2C150,387.2,150.1,387.2,150,387.2c0.8,0,1.4,0.6,1.4,1.3
			c0,0.1,0,0.3-0.1,0.4l0,0l-6.2,27c-0.3,1-1.1,1.7-2.1,1.8h0h-30.8c0,0,0,0-0.1,0c-0.7,0-1.3-0.6-1.3-1.3c0-0.1,0-0.3,0.1-0.4l0,0
			l6.2-27c0.3-1,1.1-1.7,2.1-1.8h0H150z"/>
		<path id="XMLID_129_" class="st1" d="M24.7,315.5c3.1-2,6.8-5.4,5.4-9.5c-0.8-2.2-1.8-4.1-1.9-6.5c-0.1-2,0.2-4.1,0.9-6
			c2.8-7.5,11.1-11,18.6-8.8c6.9,2.1,11.7,10.1,8.8,17.2c-1.7,4.1-2.4,7.2,1.3,10.3c1,0.9,3.4,2.1,3.4,3.7c0,2-3.9-0.4-4.3-0.8
			c0.5,0.9,5.4,6,2.3,6.4c-2.9,0.3-5.4-3.7-7.1-5.4c-2.9-2.9-2.4,3.5-2.4,4.8c0,2.1-1.5,6.3-4.2,3.6c-2.2-2.3-1.3-5.9-2.9-8.4
			c-1.7-2.8-4.4,2.8-5.1,3.8c-0.8,1.1-4.7,6.6-6.2,3.7c-1.2-2.4,0.7-6.1,1.7-8.2c-0.4,0.8-2.9,1.9-3.6,2.3c-1.6,0.9-3.4,1.3-5.3,1.2
			C20.1,318.6,23.1,316.5,24.7,315.5L24.7,315.5z"/>
	</g>
</g>
</svg>
