<?xml version="1.0" encoding="utf-8"?>
<!-- Generator: Adobe Illustrator 19.0.0, SVG Export Plug-In . SVG Version: 6.00 Build 0)  -->
<svg version="1.1" id="Layer_1" xmlns="http://www.w3.org/2000/svg" xmlns:xlink="http://www.w3.org/1999/xlink" x="0px" y="0px"
	 viewBox="0 0 353 353" style="enable-background:new 0 0 353 353;" xml:space="preserve">
<style type="text/css">
	.st0{fill:#7F93A9;stroke:#FFFFFF;stroke-miterlimit:10;}
	.st1{fill:#050505;}
</style>
<g id="XMLID_85_">
	<path id="XMLID_127_" class="st0" d="M176.5,0C79,0,0,79,0,176.5S79,353,176.5,353S353,274,353,176.5S274,0,176.5,0z M176.2,266.8
		c-49.8,0-90.2-40.4-90.2-90.2s40.4-90.2,90.2-90.2s90.2,40.4,90.2,90.2S226,266.8,176.2,266.8z"/>
	<g id="XMLID_83_">
		<path id="XMLID_68_" d="M24.2,202c-4.8-0.3-9.4-1.5-12.3-3.1c-1.6-0.9-2.9-2-3.4-3l-0.3-0.6v-18.6V158l0.2-0.5
			c1-2.1,4.3-4,8.9-5.1c1.6-0.4,3.8-0.8,5.6-1c1.9-0.2,6.8-0.2,8.7,0.1c5,0.6,9.2,1.9,11.8,3.7c1,0.7,2,1.8,2.4,2.5l0.3,0.6l0,18.6
			l0,18.6l-0.2,0.5c-0.1,0.3-0.5,0.8-0.9,1.2c-2.2,2.3-6.8,4-12.9,4.7C30.8,202,25.4,202.1,24.2,202L24.2,202z M32.9,186
			c0,0-0.7-0.7-1.6-1.4c-0.8-0.7-1.6-1.4-1.6-1.4c0,0,0.1-0.2,0.3-0.3c0.2-0.1,0.7-0.5,1-0.9c0.9-1,1.4-2.2,1.4-3.8
			c0-1.6-0.5-2.8-1.4-3.8c-1-1-2-1.4-3.6-1.4c-2.5,0-4.3,1.4-4.9,3.8c-0.2,0.8-0.2,2.4,0,3.1c0.5,1.8,2,3.2,3.9,3.5
			c0.6,0.1,0.7,0.2,1.1,0.6c0.3,0.3,0.8,0.8,1.2,1.2l0.7,0.7h1.8C32.1,186.1,32.9,186.1,32.9,186L32.9,186z M26.6,180.9
			c-0.4-0.2-0.6-0.4-0.9-0.9c-0.2-0.4-0.2-0.6-0.2-1.6c0-1,0-1.2,0.2-1.6c0.3-0.7,0.8-1,1.5-1c1-0.1,1.6,0.4,1.9,1.6
			c0.4,1.4,0,3-0.9,3.5C27.7,181.1,27,181.1,26.6,180.9L26.6,180.9z M18.4,183.5c1.9-0.4,3-1.5,3-3.1c0-1.4-0.7-2.3-2.7-3.1
			c-1.1-0.5-1.5-0.8-1.5-1.2c0-0.3,0.4-0.6,0.8-0.7c0.4-0.1,1.6,0.1,2.3,0.4L21,176v-1.3v-1.3l-0.6-0.1c-0.4-0.1-1.2-0.1-2.1-0.1
			c-1.3,0-1.6,0-2.1,0.2c-1.4,0.6-2.1,1.5-2.1,3c0,1.4,0.7,2.2,2.5,3c1.1,0.5,1.5,0.8,1.5,1.2c0,0.9-1.4,1-3,0.2
			c-0.4-0.2-0.8-0.4-0.8-0.4c0,0-0.1,0.6-0.1,1.3c0,1.4,0,1.4,0.2,1.4C15.4,183.6,17.4,183.7,18.4,183.5z M40.5,182.3v-1.1h-1.7H37
			v-3.9v-3.9h-1.5h-1.5v5.1v5.1h3.3h3.3L40.5,182.3L40.5,182.3z M29.7,162.2c3.1-0.2,5.4-0.6,7.4-1.3c2-0.7,3.2-1.5,3.5-2.4
			c0.1-0.3,0.1-0.5,0-0.8c-0.6-1.7-4.2-3-9.7-3.5c-2.4-0.2-6.6-0.2-8.9,0.2c-3.4,0.5-6.2,1.3-7.4,2.3c-2.5,2,0.1,4.2,6.3,5.2
			C23.5,162.2,26.9,162.4,29.7,162.2L29.7,162.2z"/>
		<path id="XMLID_28_" d="M63.3,47.9h7.6v35.3c-3.9,0.7-6.8,1-9.9,1c-9.3,0-14.2-4.2-14.2-12.3c0-7.8,5.2-12.8,13.1-12.8
			c1.2,0,2.2,0.1,3.3,0.4V47.9z M63.3,65.7c-0.9-0.3-1.6-0.4-2.6-0.4c-3.9,0-6.1,2.4-6.1,6.5c0,4.1,2.1,6.3,6,6.3
			c0.8,0,1.5,0,2.6-0.2V65.7z"/>
		<path id="XMLID_26_" d="M288.1,46.5c-0.4,0-0.7,0.1-1,0.2c0.7,0.4,1,1,1.2,1.7c0,0.1,0,0.2,0,0.2c0,0.1,0,0.2,0,0.2
			c0,1.2-0.3,1.3-0.6,2c-0.4,0.9-0.3,1.8,0.2,2.6c0,0.1,0.1,0.2,0.2,0.3c-0.5-3.3,2.3-3.8,2.8-4.8c0-0.9-0.7-1.5-1.3-1.9
			C289,46.6,288.5,46.5,288.1,46.5z M292.2,47.2c0,0.3,0,0.2,0,0.4c0,0.1,0,0.2,0,0.4c0,0.1,0,0.2-0.1,0.3c0,0.1-0.1,0.2-0.1,0.3
			c0,0.1-0.1,0.2-0.1,0.3c0,0-0.1,0.1-0.1,0.2c0,0,0,0.1-0.1,0.1c-0.1,0.1-0.1,0.2-0.2,0.3l-0.2,0.2c-0.1,0.1-0.2,0.2-0.2,0.2
			c-0.3,0.2-0.6,0.4-0.9,0.6c-0.1,0.1-0.2,0.1-0.3,0.2c-0.1,0.1-0.2,0.1-0.2,0.2l-0.2,0.2c-0.1,0.1-0.2,0.2-0.2,0.3
			c-0.1,0.1-0.1,0.2-0.2,0.3c0,0.1-0.1,0.2-0.2,0.3c0,0.1-0.1,0.2-0.1,0.3s-0.1,0.2-0.1,0.3c0,0,0,0.1,0,0.2c0,0,0,0.1,0,0.2v0.6
			c0,0.1,0,0.2,0,0.3c0,0.1,0,0.2,0.1,0.3c0,0.1,0.1,0.2,0.1,0.3c0,0.1,0.1,0.1,0.1,0.2l-3-1.2c-0.5-0.2-1-0.3-1.5-0.4
			c-0.3-0.1-0.6-0.1-0.8-0.2c-0.8-0.2-1.6-0.3-2.4-0.4H281c-0.8-0.1-1.5-0.1-2.3-0.1c-0.6,0-1.2,0-1.7,0.1c-0.8,0-1.6,0.2-2.4,0.3
			l-0.6,0.1c-0.4,0.1-0.8,0.2-1.2,0.3c-0.2,0-0.4,0.1-0.6,0.2c-0.2,0.1-0.4,0.2-0.6,0.2c-0.2,0.1-0.3,0.1-0.4,0.2c0,0,0,0-0.1,0
			c-0.1,0.1-0.2,0.1-0.4,0.2c0,0-0.1,0-0.1,0c-0.2,0.1-0.3,0.2-0.4,0.2c-0.1,0-0.2,0.1-0.3,0.1c0,0-0.1,0-0.1,0.1
			c-0.1,0.1-0.2,0.1-0.4,0.2c-0.1,0.1-0.2,0.1-0.3,0.2s-0.2,0.1-0.3,0.2c0,0,0,0,0,0c-0.1,0-0.2,0.1-0.2,0.2l0,0
			c-0.1,0-0.1,0.1-0.2,0.2c0,0,0,0-0.1,0c-0.1,0-0.1,0.1-0.2,0.2c0,0,0,0,0,0l-0.2,0.2l0,0l-0.2,0.2c0,0,0,0,0,0l-0.2,0.2
			c0,0-0.1,0-0.1,0.1l-0.2,0.2c0,0,0,0,0,0.1l-0.3,0.3l0,0c-0.2,0.2-0.4,0.4-0.7,0.6s-0.5,0.4-0.8,0.6c-0.3,0.2-0.5,0.4-0.8,0.5
			s-0.6,0.3-0.8,0.4c-0.3,0.1-0.6,0.2-0.8,0.3c-0.6,0.1-1.1,0.4-1.6,0.4c0-0.2-0.1-0.2-0.2-0.2c-0.1,0-0.2,0-0.3,0.1
			c-0.1,0-0.2,0.1-0.3,0.1c-0.1,0-0.2,0.1-0.3,0.2c-0.1,0.1-0.2,0.1-0.3,0.2c-0.1,0.1-0.2,0.2-0.3,0.2c-0.1,0.1-0.2,0.2-0.3,0.2
			c-0.1,0.1-0.2,0.2-0.2,0.3s-0.2,0.2-0.2,0.3c-0.1,0.1-0.1,0.2-0.2,0.3c0,0.1-0.1,0.2-0.2,0.4l-0.1,0.4c0,0.1,0,0.2-0.1,0.3v0
			c0,0.1,0,0.3,0,0.4c0,0,0,0,0,0.1v0.2c0,0.1,0,0.2,0,0.2c0,0.1,0,0.2,0.1,0.2c0,0.1,0.1,0.2,0.2,0.2c0,0.1,0.1,0.2,0.2,0.2
			c0.1,0.1,0.2,0.2,0.2,0.2c0.1,0.1,0.2,0.2,0.2,0.2c0.3,0.3,0.4,0.4,0.8,0.6c0.1,0,0.1,0.1,0.2,0.1h0v0.1c0,0.1,0,0.2,0.1,0.3
			c0,0.1,0.1,0.2,0.1,0.3l0.1,0.2c0,0,0,0,0,0.1c0,0.1,0.1,0.2,0.2,0.3c0.1,0.1,0.1,0.2,0.2,0.3l0.2,0.2l0.2,0.2h0
			c0.1,0.1,0.2,0.1,0.2,0.2s0.2,0.1,0.3,0.2s0.2,0.1,0.3,0.2c0.1,0,0.2,0.1,0.3,0.1c0,0,0,0,0,0c0,0,0.1,0,0.2,0c0,0.7,0,1.4,0,1.6
			c0.1,0.3,0.7-0.6,1.3-1.5c-0.1,0.9-0.1,2,0,2.3c0.2,0.3,0.9-0.7,1.6-1.8c9.3-2.1,17.8,4.3,18.7,13.4c-0.2-1.4-1.9-2.2-2.7-2
			c-0.4,1-1.1,2.2-2.1,3c0.1-0.9,0-1.7-0.1-2.6c-0.3,1.2-0.8,2.3-1.6,3.3c-1.2,0.1-2.5-0.5-3.1-1.4c0,0-0.1-0.1-0.1-0.2
			c0-0.1-0.1-0.2-0.1-0.3c0-0.1-0.1-0.2-0.1-0.3v-0.3v-0.2c0-0.1,0-0.2,0.1-0.3s0-0.2,0.1-0.3s0.1-0.2,0.2-0.3
			c0.2-0.6,0.2-1.2-0.2-1.4L274,79c0,0-0.1,0-0.2,0c0,0-0.1,0-0.1,0c-0.1,0-0.2,0-0.3-0.1s-0.2,0-0.3,0s-0.2,0-0.3,0h-0.2
			c-0.1,0-0.2,0-0.3,0c-0.1,0-0.2,0-0.3,0c-0.1,0-0.2,0-0.3,0.1c-0.1,0-0.2,0.1-0.3,0.1l-0.2,0.1c-3.1,2-1.2,6.7,0.8,8
			c-0.8,0.2-1.6,0.3-1.8,0.5l0,0c0.6,0.4,1.2,0.6,1.8,0.9c0.8,0.3,1.7,0.5,2.1,0.6c1.1,0.2,2.2,0.3,3.3,0.2
			c5.8-0.4,10.6-4.8,11.4-10.6c0,0.1,0,0.2,0.1,0.4c0,0.2,0.1,0.5,0.1,0.8c0,0.1,0,0.2,0,0.4v0c0,0.1,0,0.2,0,0.4c0,0.2,0,0.3,0,0.4
			v1.7c0,0.1,0,0.2,0,0.3v0.1c0,0.1,0,0.2,0,0.4c0,0.1,0,0.2-0.1,0.4v0c0,0.1,0,0.2-0.1,0.4v0c0,0.1,0,0.2-0.1,0.4v0l-0.1,0.4v0
			c0,0.1-0.1,0.3-0.1,0.4c0,0.1-0.1,0.2-0.2,0.4c0,0.1-0.1,0.3-0.2,0.4c0,0.1-0.1,0.2-0.2,0.4c0,0.1-0.1,0.2-0.2,0.4
			c0,0,0,0.1,0,0.1s0,0,0,0c-0.8,1.7-2.1,3.2-3.7,4.4c-0.1,0.1-0.2,0.2-0.3,0.2c0,0-0.1,0-0.1,0.1c-0.1,0.1-0.2,0.1-0.3,0.2l0,0.1
			c0.2,0,0.4,0,0.6-0.1c0.4,0,0.7-0.1,1-0.2c0.1,0,0.2,0,0.3-0.1c0.1,0,0.1,0,0.2,0s0.2,0,0.3,0c0.1,0,0.2,0,0.2-0.1
			c1.3-0.3,2.6-0.8,3.8-1.3c-2.1,2.9-4.9,5.2-8.1,6.7c1.5-0.1,3-0.4,4.5-0.8c5.3-1.5,9.7-5.1,12.4-9.9c-0.6,3-1.7,5.9-3.5,8.5
			c1.3-0.8,2.4-1.8,3.5-2.9c2.9-3.1,4.9-7,5.5-11.2c0.4,2.1,0.6,4.2,0.4,6.3c9.5-13.2,0.8-26.9-2.9-30.6c0,0,0,0,0-0.1l0,0
			c0,0.2,0,0.3,0,0.5c0,0.3-0.1,0.6-0.1,0.9c-0.1,0.3-0.2,0.6-0.2,0.9c-0.1,0.3-0.2,0.6-0.3,0.8c-0.1,0.3-0.2,0.6-0.4,0.8
			c-0.2,0.2-0.3,0.5-0.5,0.8s-0.4,0.5-0.6,0.7c-0.2,0.2-0.4,0.4-0.6,0.7c-0.1,0.1-0.2,0.2-0.4,0.3c-0.1,0.1-0.2,0.2-0.3,0.3
			c-0.2,0.2-0.5,0.4-0.8,0.5c-0.2,0.2-0.5,0.3-0.8,0.4l-0.8,0.4c-0.3,0.1-0.6,0.2-0.8,0.3s-0.6,0.2-0.9,0.2c-0.3,0-0.6,0.1-0.9,0.1
			c-0.2,0-0.4,0-0.6,0c-0.3,0-0.6,0-0.9,0c-0.3,0-0.6-0.1-0.9-0.1c-0.3,0-0.6-0.1-0.9-0.2c0.3,0,0.6,0,0.9-0.1
			c0.3,0,0.6-0.1,0.9-0.2s0.6-0.2,0.8-0.3l0.8-0.4c0.3-0.1,0.5-0.3,0.8-0.4c0.2-0.2,0.5-0.4,0.8-0.5c0.2-0.2,0.5-0.4,0.7-0.6
			c0.2-0.2,0.4-0.4,0.6-0.6c0.2-0.2,0.4-0.5,0.6-0.7c0,0,0-0.1,0.1-0.1c0.1-0.2,0.3-0.4,0.4-0.6c0.2-0.3,0.3-0.5,0.4-0.8
			s0.2-0.6,0.3-0.8l0.2-0.8c0-0.3,0.1-0.6,0.1-0.9c0-0.3,0-0.6,0-0.9c0-0.2,0-0.4,0-0.6c0-0.3-0.1-0.6-0.1-0.9
			c0-0.3-0.1-0.6-0.2-0.9c-0.1-0.3-0.2-0.6-0.3-0.8c-0.1-0.3-0.2-0.6-0.4-0.8c-0.2-0.3-0.3-0.5-0.4-0.8c-0.2-0.2-0.4-0.5-0.5-0.7
			c-0.2-0.2-0.4-0.4-0.6-0.7c-0.1-0.1-0.2-0.2-0.4-0.3c-0.6-0.5-1.2-0.9-1.8-1.3c-0.1,0-0.2-0.1-0.3-0.1
			C293,47.5,292.6,47.4,292.2,47.2z"/>
		<g id="XMLID_30_">
			<path id="XMLID_34_" d="M267.8,282.6c0,7.2,4.2,13.4,10.3,16.4l-8.7-23.8C268.4,277.5,267.8,280,267.8,282.6z M298.4,281.7
				c0-2.3-1.2-3.8-1.9-5c-0.9-1.5-1.8-2.8-1.8-4.3c0-1.7,1.7-3.2,3.5-3.2c0.1,0,0.2,0,0.2,0c-3.2-3-7.6-4.8-12.3-4.8
				c-6.1,0-11.6,3-14.9,7.7c0.3,0.1,0.3,0,0.7,0c1.9,0,4.9-0.2,4.9-0.2c1-0.1,1.1,1.4,0.1,1.5c0,0-1,0.1-2.1,0.2l6.8,20.2l4-12
				l-3-8.3c-1-0.1-1.9-0.2-1.9-0.2c-1-0.1-0.9-1.6,0.1-1.5c0,0,3,0.2,4.8,0.2c1.9,0,4.9-0.2,4.9-0.2c1-0.1,1.1,1.4,0.1,1.5
				c0,0-1,0.1-2.1,0.2l6.7,20.1l1.8-6.1C297.9,285.3,298.4,283.3,298.4,281.7z M286.4,284.2l-5.5,15.9c1.6,0.5,3.4,0.7,5.1,0.7
				c2.1,0,4.2-0.4,6.1-1c0-0.1-0.1-0.2-0.1-0.3L286.4,284.2z M302.1,273.9c0.1,0.6,0.1,1.2,0.1,1.9c0,1.9-0.3,3.9-1.4,6.5l-5.6,16.1
				c5.4-3.2,9.1-9,9.1-15.8C304.3,279.5,303.5,276.5,302.1,273.9z"/>
			<path id="XMLID_31_" d="M263.3,282.6c0,12.6,10.2,22.8,22.8,22.8c12.6,0,22.8-10.2,22.8-22.8s-10.2-22.8-22.8-22.8
				S263.3,270.1,263.3,282.6z M265.6,282.6c0-11.3,9.2-20.5,20.5-20.5s20.5,9.2,20.5,20.5c0,11.3-9.2,20.5-20.5,20.5
				C274.8,303.1,265.6,293.9,265.6,282.6z"/>
		</g>
		<g id="XMLID_53_">
			<path id="XMLID_59_" class="st1" d="M87.9,269.8l-28.2,16.3c1.6,2.7,4.6,4.4,7.9,4.4c3.4,0,6.5-1.9,8.1-4.7l4.9,2.9
				c-2.6,4.5-7.4,7.5-13,7.5c-5.4,0-10.2-2.9-12.8-7.3l-7.2,4.2c0,0,0,0,0-0.1l-0.1,0c0.2,0.3,0.5,0.6,0.7,0.7l18.3,10.6
				c0.3,0.2,0.7,0.3,1.2,0.3c0.5,0,0.9-0.1,1.2-0.3L87,293.9c0.6-0.4,1.1-1.3,1.1-2v-21.1C88.1,270.5,88.1,270.1,87.9,269.8z
				 M86.9,280.5h-1.2l-0.3,1.6h1.6v1.8H85l-0.5,2.3h-1.8l0.5-2.3h-1.4l-0.5,2.3h-1.8l0.5-2.3H79v-1.8h1.2v0l0.3-1.6H79v-1.8h1.9
				l0.5-2.3h1.8l-0.5,2.3h1.4l0.5-2.3h1.8l-0.5,2.3h0.9L86.9,280.5L86.9,280.5z"/>
			<polygon id="XMLID_58_" class="st1" points="82,282.1 83.5,282.1 83.8,280.5 82.4,280.5 			"/>
			<path id="XMLID_57_" class="st1" d="M52.8,281.3c0-8.3,6.7-14.9,14.9-14.9c5.5,0,10.4,3.1,13,7.5c2.1-1.2,7.2-4.2,7.2-4.2
				c0,0,0,0.1,0.1,0.1l0.1-0.1c-0.2-0.5-0.6-0.8-0.9-1l-18.3-10.5c-0.3-0.2-0.7-0.3-1.2-0.3c-0.5,0-0.9,0.1-1.2,0.3l-18.2,10.6
				c-0.6,0.4-1.1,1.3-1.1,2v21.1c0,0.4,0.1,0.9,0.3,1.2c0,0,5.1-3,7.2-4.2C53.5,286.7,52.8,284.1,52.8,281.3z"/>
			<path id="XMLID_56_" class="st1" d="M67.7,272c-5.1,0-9.3,4.2-9.3,9.3c0,1.7,0.5,3.4,1.3,4.7c6.8-3.9,9.3-5.4,16-9.3
				C74.2,273.9,71.2,272,67.7,272z"/>
			<path id="XMLID_55_" class="st1" d="M54.9,289C54.9,289,54.9,289,54.9,289c-2.2,1.2-7.3,4.1-7.3,4.1c0,0,0,0,0,0.1L54.9,289z"/>
			<path id="XMLID_54_" class="st1" d="M80.7,273.9C80.7,273.9,80.7,273.9,80.7,273.9l-4.9,2.9c0,0,0,0,0,0c-6.7,3.9-9.3,5.4-16,9.3
				c0,0,0,0.1,0.1,0.1l28.2-16.3c0,0,0-0.1-0.1-0.1C87.9,269.7,82.8,272.7,80.7,273.9z"/>
		</g>
		<path id="XMLID_71_" d="M328.5,192.7c0,0,0-20.3,0.7-20.3c0.5,0,1.2,26.1,1.2,26.1C329.4,198.5,328.5,194.3,328.5,192.7
			L328.5,192.7z M341.5,172.7c-1.8-7.9-5.7-14.6-11.2-19.8l0,0c-0.7-1-1.3-2.2-1.8-3.4l0-0.1c0,0,0,0.1,0,0.1c0,1.1-0.5,2.1-1.3,2.8
			l0,0c-7,5.9-11.4,14.7-11.6,24.5v0c0,0.1,0,0.3,0,0.4c0,9.7,4.7,18.3,11.9,23.7l0.1,0.1l0.2,0.1c0.3,2.3,0.6,4.7,0.8,7h1.2
			c0.3-2.9,0.8-5.5,1.3-8l-0.1,0.5c0.8-0.5,1.5-1.1,2.1-1.7l0,0c5.5-5.1,8.9-12.3,8.9-20.3c0-0.1,0-0.2,0-0.4v0
			c0-1.9-0.2-3.8-0.5-5.6L341.5,172.7L341.5,172.7z"/>
		<path id="XMLID_75_" d="M176.1,32.1h-18.2c-0.7-2.2-1-4.5-1-6.7c0-2.4,0.3-4.6,1-6.7h29.9c3.7,0,6.7,3,6.7,6.7c0,0,0,0,0,0
			c0,3.7-3,6.7-6.7,6.7c0,0,0,0,0,0H176.1z M175.3,34.4h-16.5c1.7,4,4.6,7.4,8.3,9.8c3.7,2.4,8,3.7,12.3,3.7c7.8,0,14.6-4,18.7-10
			c-2.1-2.2-5.1-3.5-8.2-3.5L175.3,34.4z M189.9,16.4c3.2,0,6.1-1.4,8.2-3.5c-6.9-10.3-20.9-13.1-31.2-6.2c-3.5,2.4-6.3,5.7-8.1,9.6
			h16.5L189.9,16.4z"/>
		<path id="XMLID_84_" d="M192.3,313.2l-22.4,24.2l28.2-13C197.2,320.3,195.2,316.4,192.3,313.2 M175.7,306c-3.1,0-6.1,0.6-8.8,1.7
			l-3,25.3l15-26.9C177.8,306.1,176.7,306,175.7,306 M198.3,325.9l-26.7,14.9l25-3C198.2,334.1,198.8,329.9,198.3,325.9
			 M188.4,347.7c3-2,5.5-4.7,7.2-7.9l-23.5,4.7L188.4,347.7z M180.3,306.5l-13.1,28.3l24.2-22.4
			C188.4,309.4,184.5,307.4,180.3,306.5 M177.6,351.6c2.5-0.2,4.9-0.8,7.2-1.8l-13.1-1.6L177.6,351.6z M154.9,319.5
			c-1,2.3-1.7,4.8-1.9,7.3l3.5,6.3L154.9,319.5z M164.9,308.7c-3.2,1.7-6,4.2-8,7.2l3.3,16.6L164.9,308.7z"/>
		<path id="XMLID_25_" d="M82.3,62.1v17.7c0,6.1-0.4,9-1.8,11.6c-1.2,2.4-2.9,4-6.2,5.7l-7.1-3.4c3.4-1.6,5-3,6-5.1
			c1.1-2.2,1.4-4.7,1.4-11.4V62.1H82.3z M74.7,50.3h7.6v7.8h-7.6V50.3z"/>
	</g>
</g>
</svg>
