<?xml version="1.0" encoding="utf-8"?>
<!-- Generator: Adobe Illustrator 19.0.0, SVG Export Plug-In . SVG Version: 6.00 Build 0)  -->
<svg version="1.1" id="Layer_1" xmlns="http://www.w3.org/2000/svg" xmlns:xlink="http://www.w3.org/1999/xlink" x="0px" y="0px"
	 viewBox="0 0 548.3 552.4" style="enable-background:new 0 0 548.3 552.4;" xml:space="preserve">
<style type="text/css">
	.st0{fill:#2A3D50;stroke:#000000;stroke-miterlimit:10;}
	.st1{fill:#FDFDFD;}
</style>
<g id="XMLID_45_">
	<path id="XMLID_151_" class="st0" d="M274.2,3.2C122.7,3.2,0,126,0,277.4s122.7,274.2,274.2,274.2s274.2-122.7,274.2-274.2
		S425.6,3.2,274.2,3.2z M273.8,368.6c-49.8,0-90.2-40.4-90.2-90.2s40.4-90.2,90.2-90.2s90.2,40.4,90.2,90.2S323.7,368.6,273.8,368.6
		z"/>
	<g id="XMLID_147_">
		<g id="XMLID_141_">
			<path id="XMLID_143_" class="st1" d="M44.2,251.9c-12.1,0-21.9,9.8-21.9,21.9c0,12.1,9.8,21.9,21.9,21.9s21.9-9.8,21.9-21.9
				C66.1,261.7,56.3,251.9,44.2,251.9z M49.4,273.3c0-0.2,0.1-0.2,0.2-0.2c0,0,0.1,0,0.1,0c0,0,0.1,0,0.2,0.1
				c0.2,0.1,0.5,0.2,0.8,0.3c0.3,0.1,0.6,0.1,0.9,0.1c0.5,0,0.8-0.1,1.1-0.2c0.2-0.1,0.4-0.4,0.4-0.7c0-0.2-0.1-0.4-0.2-0.5
				c-0.1-0.1-0.4-0.3-0.7-0.4l-1.1-0.3c-0.5-0.2-0.9-0.4-1.2-0.7c-0.2-0.3-0.4-0.7-0.4-1.1c0-0.3,0.1-0.6,0.2-0.8
				c0.1-0.2,0.3-0.4,0.5-0.6c0.2-0.2,0.5-0.3,0.8-0.4c0.3-0.1,0.6-0.1,0.9-0.1c0.2,0,0.3,0,0.5,0c0.2,0,0.3,0.1,0.5,0.1
				c0.1,0,0.3,0.1,0.4,0.1c0.1,0,0.2,0.1,0.3,0.1c0.1,0,0.2,0.1,0.2,0.2c0,0.1,0.1,0.2,0.1,0.2v0.3c0,0.2-0.1,0.2-0.2,0.2
				c-0.1,0-0.2,0-0.3-0.1c-0.4-0.2-0.9-0.3-1.4-0.3c-0.4,0-0.7,0.1-1,0.2c-0.2,0.1-0.3,0.4-0.3,0.6c0,0.2,0.1,0.4,0.2,0.5
				c0.1,0.1,0.4,0.3,0.8,0.4l1,0.3c0.5,0.2,0.9,0.4,1.1,0.7c0.2,0.3,0.3,0.6,0.3,1c0,0.3-0.1,0.6-0.2,0.8c-0.1,0.2-0.3,0.5-0.5,0.6
				c-0.2,0.2-0.5,0.3-0.8,0.4c-0.3,0.1-0.7,0.2-1.1,0.2l0,0l0,0l0,0c-0.4,0-0.8,0-1.1-0.1c-0.4-0.1-0.6-0.2-0.8-0.3
				c-0.1-0.1-0.2-0.1-0.2-0.2c0-0.1,0-0.1,0-0.2V273.3z M40.3,267.8H41c0.1,0,0.2,0,0.3,0.1c0.1,0,0.1,0.1,0.1,0.3l1.2,4.8l1.1-4.8
				c0-0.1,0.1-0.2,0.1-0.3c0.1-0.1,0.2-0.1,0.3-0.1h0.6c0.1,0,0.2,0,0.3,0.1c0.1,0,0.1,0.1,0.1,0.3l1.2,4.9l1.3-4.9
				c0-0.1,0.1-0.2,0.1-0.3c0.1-0.1,0.2-0.1,0.3-0.1h0.7c0.1,0,0.2,0.1,0.2,0.2c0,0,0,0.1,0,0.1c0,0.1,0,0.1-0.1,0.2l-1.8,5.6
				c0,0.1-0.1,0.2-0.2,0.3c-0.1,0.1-0.2,0.1-0.3,0.1H46c-0.1,0-0.2,0-0.3-0.1c-0.1-0.1-0.1-0.1-0.1-0.3l-1.1-4.7l-1.1,4.7
				c0,0.1-0.1,0.2-0.1,0.3c-0.1,0.1-0.2,0.1-0.3,0.1l-0.6,0c-0.1,0-0.2,0-0.3-0.1c-0.1,0-0.1-0.1-0.2-0.3l-1.7-5.6
				c0-0.1-0.1-0.2-0.1-0.3C40.1,267.9,40.1,267.8,40.3,267.8z M37.9,269c-0.2-0.2-0.6-0.3-1.2-0.3c-0.3,0-0.5,0-0.8,0.1
				c-0.3,0.1-0.5,0.1-0.8,0.2c-0.1,0-0.2,0.1-0.3,0.1c0,0-0.1,0-0.1,0c-0.1,0-0.2-0.1-0.2-0.2v-0.4c0-0.1,0-0.2,0.1-0.3
				c0.1-0.1,0.1-0.1,0.2-0.2c0.3-0.1,0.6-0.2,0.9-0.3c0.4-0.1,0.8-0.1,1.1-0.1c0.9,0,1.5,0.2,1.9,0.6c0.4,0.4,0.6,1,0.6,1.8v2.4l0,0
				l0,0c0,0.3,0,0.5,0.1,0.6c0.1,0.2,0.1,0.3,0.2,0.5c0,0.1,0.1,0.1,0.1,0.2c0,0.1,0,0.1-0.1,0.2l-0.5,0.3c-0.1,0-0.1,0.1-0.2,0.1
				c-0.1,0-0.1,0-0.2-0.1c-0.1-0.1-0.2-0.2-0.3-0.3c-0.1-0.1-0.2-0.3-0.2-0.4c-0.6,0.7-1.3,1-2.1,1c-0.6,0-1.1-0.2-1.5-0.5
				c-0.4-0.4-0.5-0.8-0.5-1.4c0-0.6,0.2-1.1,0.7-1.5c0.4-0.4,1-0.6,1.8-0.6c0.2,0,0.5,0,0.8,0.1c0.3,0,0.5,0.1,0.8,0.2v-0.5
				C38.2,269.6,38.1,269.2,37.9,269z M53,278c-2.4,1.8-5.9,2.7-8.9,2.7c-4.2,0-8-1.6-10.8-4.1c-0.2-0.2,0-0.5,0.2-0.3
				c3.1,1.8,6.9,2.9,10.8,2.9c2.7,0,5.6-0.6,8.3-1.7C53.1,277.3,53.4,277.7,53,278z M53.7,279.7c-0.2,0.2-0.4,0.1-0.3-0.1
				c0.3-0.7,0.9-2.3,0.6-2.7l0,0c-0.3-0.4-2-0.2-2.8-0.1c-0.2,0-0.3-0.2-0.1-0.3c1.4-1,3.6-0.7,3.9-0.4
				C55.3,276.4,55,278.7,53.7,279.7z"/>
			<path id="XMLID_133_" class="st1" d="M36.9,271.3c-0.5,0-0.8,0.1-1.1,0.3s-0.4,0.5-0.4,0.8c0,0.3,0.1,0.6,0.3,0.8
				c0.2,0.2,0.4,0.3,0.8,0.3c0.2,0,0.5,0,0.7-0.1c0.3-0.1,0.5-0.2,0.7-0.5c0.1-0.1,0.2-0.3,0.2-0.5c0-0.2,0.1-0.4,0.1-0.6v-0.3
				c-0.2-0.1-0.4-0.1-0.7-0.1C37.3,271.3,37.1,271.3,36.9,271.3z"/>
		</g>
		<g id="XMLID_145_">
			<path id="XMLID_142_" class="st1" d="M503.1,288.4c5.4-1.1,9.9-2,9.9-2l0.1,0l-5.1-7c-2.8-3.8-5.1-7-5.1-7c0,0,5.3-16.7,5.3-16.8
				c0,0,3.6,7.1,8.7,17.3l8.7,17.4l0.1,0.1h-16.2h-16.2L503.1,288.4z"/>
			<path id="XMLID_140_" class="st1" d="M483.6,286.3c0,0,2.4-4.8,5.3-10.7l5.3-10.7l6.2-6c3.4-3.3,6.2-6,6.2-6
				c0,0.1-0.1,0.2-0.1,0.3l-6.8,16.7l-6.6,16.4h-4.8C485.8,286.3,483.6,286.3,483.6,286.3z"/>
		</g>
	</g>
</g>
</svg>
