<?xml version="1.0" encoding="utf-8"?>
<!-- Generator: Adobe Illustrator 19.0.0, SVG Export Plug-In . SVG Version: 6.00 Build 0)  -->
<svg version="1.1" id="Layer_1" xmlns="http://www.w3.org/2000/svg" xmlns:xlink="http://www.w3.org/1999/xlink" x="0px" y="0px"
	 viewBox="-353 155 252 252" style="enable-background:new -353 155 252 252;" xml:space="preserve">
<style type="text/css">
	.st0{fill:#B5C8E0;stroke:#FFFFFF;stroke-miterlimit:10;}
	.st1{fill:#000407;}
</style>
<path id="XMLID_113_" class="st0" d="M-227,155c-69.6,0-126,56.4-126,126s56.4,126,126,126s126-56.4,126-126S-157.4,155-227,155z
	 M-228,371.3c-49.8,0-90.2-40.4-90.2-90.2s40.4-90.3,90.2-90.3s90.2,40.4,90.2,90.2S-178.2,371.3-228,371.3z"/>
<g id="XMLID_16_">
	<g id="XMLID_7_">
		<polygon id="XMLID_15_" points="-122.4,282.7 -116.6,282.7 -119.5,275.7 		"/>
		<path id="XMLID_12_" d="M-119.5,264.7l-15.9,5.7l2.4,21l13.5,7.5l13.5-7.5l2.4-21L-119.5,264.7z M-113.3,290.8l-2-5h-8.4l-2,5
			h-3.7l9.9-22.3l9.9,22.3H-113.3L-113.3,290.8z"/>
		<g id="XMLID_8_">
			<polygon id="XMLID_11_" points="-119.5,282.7 -119.5,275.7 -122.4,282.7 			"/>
			<polygon id="XMLID_10_" points="-116.6,282.7 -119.5,275.7 -119.5,282.7 			"/>
			<polygon id="XMLID_9_" points="-119.5,264.7 -119.5,268.5 -109.6,290.8 -113.3,290.8 -115.3,285.8 -119.5,285.8 -119.5,298.8 
				-106,291.4 -103.6,270.4 			"/>
		</g>
	</g>
	<path id="XMLID_17_" d="M-242.2,373.7l2.5,28.4l11.7,3.3l11.7-3.3l2.5-28.4H-242.2z M-220.8,387.1l-0.6,9.6l-6.6,2.2l-6.6-2.2
		l-0.3-4.6h3.3l0.1,2.1l3.4,1.2l3.4-1.2l0.2-3.8h-7.4l-0.2-3.3h7.7l0.2-3.3h-11.5l-0.3-3.3h15.3L-220.8,387.1z"/>
	<path id="XMLID_46_" d="M-242.4,165.6c-2.8,4.1-2.5,9.3-0.3,13.7c0,0.1,0.1,0.2,0.2,0.3l0.1,0.2c0,0,0,0.1,0.1,0.1
		c0,0.1,0.1,0.1,0.1,0.2l0.2,0.4l0.1,0.2l0.2,0.4l0.1,0.2c0.1,0.2,0.2,0.3,0.3,0.5l0.1,0.1c0.1,0.1,0.2,0.3,0.3,0.4l0.1,0.2l0.3,0.4
		l0.1,0.1c0.1,0.2,0.3,0.3,0.4,0.5l0,0c0.1,0.1,0.3,0.3,0.4,0.4l0.1,0.1l0.3,0.3l0.1,0.1c0.1,0.1,0.3,0.3,0.5,0.4l0.5,0.4l0.2,0.1
		l0.3,0.3l0.2,0.1l0.4,0.3l0.2,0.1c0.1,0.1,0.2,0.2,0.4,0.2l0.2,0.1c0.2,0.1,0.4,0.2,0.6,0.4l0.2,0.1l0.4,0.2c0.1,0,0.2,0.1,0.2,0.1
		l0.3,0.2h0.1l0.1,0.1l0.5,0.2h0.1c0.2,0.1,0.4,0.2,0.6,0.2l0.1,0.1l0.5,0.2h0.1c0.2,0.1,0.4,0.1,0.6,0.2h0.1
		c0.2,0.1,0.4,0.1,0.6,0.2c13.7,2.5,17.6-8.2,17.6-8.2c-3.3,4.3-9.3,5.5-14.9,4.2c-0.2,0-0.4-0.1-0.6-0.2h-0.2
		c-0.2-0.1-0.4-0.1-0.6-0.2h-0.1c-0.2-0.1-0.4-0.1-0.5-0.2l-0.1-0.1c-0.2-0.1-0.4-0.2-0.6-0.2h-0.1l-0.5-0.2l-0.1-0.1
		c-0.1-0.1-0.2-0.1-0.4-0.2l-0.2-0.1c-0.2-0.1-0.3-0.2-0.4-0.3l-0.2-0.1c-0.2-0.1-0.4-0.2-0.6-0.4c-0.1,0-0.1-0.1-0.2-0.1l-0.2-0.2
		l-0.1-0.1l-0.4-0.3l-0.2-0.1l-0.4-0.3l-0.2-0.1l-0.4-0.4l0,0l-0.5-0.4l-0.1-0.1l-0.3-0.3l-0.1-0.1c-0.1-0.1-0.3-0.3-0.4-0.4l0,0
		c-0.1-0.2-0.3-0.3-0.4-0.5l-0.1-0.1l-0.3-0.4l-0.1-0.1l-0.3-0.5c-3.1-4.2-4.3-10.1-1.8-14.9 M-233.6,162.1c-2,2.9-1.9,6.9-0.3,10
		c0.3,0.5,0.6,1,0.9,1.5c0.3,0.4,0.6,1,1.1,1.3c0.1,0.2,0.3,0.3,0.5,0.5l0.1,0.1c0.2,0.1,0.3,0.3,0.5,0.4l0,0
		c0.2,0.2,0.4,0.3,0.6,0.5l0.1,0.1c0.2,0.1,0.4,0.3,0.6,0.4l0,0c0.1,0.1,0.2,0.1,0.3,0.2l0.1,0.1c0.1,0.1,0.3,0.2,0.4,0.3h0.1
		l0.4,0.2c0,0,0.1,0,0.1,0.1l0.3,0.1l0,0c0.2,0.1,0.4,0.2,0.5,0.3h0.1c0.1,0.1,0.3,0.1,0.4,0.2l0.2,0.1c0.1,0,0.3,0.1,0.4,0.1
		l0.2,0.1c0.2,0.1,0.4,0.1,0.6,0.2c10.6,1.7,13-6.4,13-6.4c-2.2,3.2-6.4,4.7-11,3.5c-0.2-0.1-0.4-0.1-0.6-0.2c-0.1,0-0.1,0-0.2-0.1
		l-0.4-0.1l-0.2-0.1c-0.2-0.1-0.3-0.1-0.4-0.2h-0.1c-0.2-0.1-0.4-0.2-0.6-0.3l-0.3-0.1l-0.2-0.1c-0.1-0.1-0.2-0.1-0.3-0.2h-0.1
		c-0.1-0.1-0.3-0.2-0.4-0.3l-0.1-0.1l-0.3-0.2c-0.2-0.1-0.4-0.3-0.6-0.4l-0.1-0.1c-2-1.6-3.6-3.7-4.3-6.1c-0.8-2.5-0.6-5.3,0.7-7.6
		 M-226.2,159.6c-1.2,1.8-1.3,4-0.5,5.9c0.9,2.1,2.7,3.7,4.8,4.5l0.3,0.1h0.1l0.4,0.1c5.8,1.1,7.4-3,7.8-3.6c-1.4,2-3.7,2.5-6.6,1.8
		c-0.2-0.1-0.5-0.1-0.7-0.2c-0.3-0.1-0.6-0.2-0.8-0.3c-0.5-0.2-1-0.5-1.4-0.9c-2.6-1.9-4.1-5.6-2.5-8.7"/>
	<path class="st1" d="M-323.4,264.5c-0.1-0.1-0.3-0.2-0.5-0.2h-25.3c0,0,0,0-0.1,0c0,0,0,0-0.1,0c-0.3,0.1-0.6,0.4-0.5,0.7l2.3,25.6
		c0,0.3,0.2,0.5,0.5,0.5l10.4,3c0.1,0,0.2,0,0.4,0l10.4-3c0.3-0.1,0.4-0.3,0.5-0.5l2.3-25.6C-323.2,264.8-323.3,264.6-323.4,264.5z
		 M-329.5,272.7h-11.6c-0.2,0-0.4,0.1-0.5,0.2c-0.1,0.1-0.2,0.3-0.2,0.5v0l0,0l0,0.2l0.3,3.1c0,0.1,0,0.1,0,0.2v0l0,0
		c0.1,0.2,0.3,0.4,0.5,0.4l0,0h10.9l-0.8,8.6l-5.9,1.8l-5.9-1.8l-0.2-2.8h1.9l0,0l0.1,0.9c0,0.1,0,0.2,0.1,0.3l0,0l0,0
		c0.1,0.1,0.2,0.3,0.4,0.3l3.3,0.7l0.3,0.1l0.1,0c0.1,0,0.1,0,0.2,0l2.3-0.5l1.3-0.2l0,0c0.2-0.1,0.4-0.2,0.4-0.4l0,0v0
		c0,0,0-0.1,0-0.1l0.3-3.6l0.1-0.5l0,0v0c0-0.2-0.1-0.4-0.2-0.5c-0.1-0.1-0.3-0.2-0.5-0.2h-10.5l-0.7-8.3h14.5L-329.5,272.7z"/>
</g>
</svg>
