<?xml version="1.0" encoding="utf-8"?>
<!-- Generator: Adobe Illustrator 19.0.0, SVG Export Plug-In . SVG Version: 6.00 Build 0)  -->
<svg version="1.1" id="Layer_1" xmlns="http://www.w3.org/2000/svg" xmlns:xlink="http://www.w3.org/1999/xlink" x="0px" y="0px"
	 viewBox="0 0 960 560" style="enable-background:new 0 0 960 560;" xml:space="preserve">
<style type="text/css">
	.st0{fill:#2A3D50;stroke:#000000;stroke-miterlimit:10;}
	.st1{fill:#FDFDFD;}
	.st2{fill:none;stroke:#415468;stroke-width:3;stroke-miterlimit:10;}
	.st3{fill:#4D6075;stroke:#FFFFFF;stroke-miterlimit:10;}
	.st4{fill:#7F93A9;stroke:#FFFFFF;stroke-miterlimit:10;}
	.st5{fill:#050505;}
	.st6{fill:#B5C8E0;stroke:#FFFFFF;stroke-miterlimit:10;}
	.st7{fill:#800000018000000180000001;}
</style>
<g id="XMLID_6_">
	<g id="XMLID_45_">
		<path id="XMLID_151_" class="st0" d="M479.5,7.8C328.1,7.8,205.3,130.6,205.3,282s122.7,274.2,274.2,274.2S753.7,433.4,753.7,282
			S630.9,7.8,479.5,7.8z M479.2,373.3c-49.8,0-90.2-40.4-90.2-90.2s40.4-90.2,90.2-90.2s90.2,40.4,90.2,90.2S529,373.3,479.2,373.3z
			"/>
		<g id="XMLID_147_">
			<g id="XMLID_141_">
				<path id="XMLID_143_" class="st1" d="M229.5,259.5c-12.1,0-21.9,9.8-21.9,21.9s9.8,21.9,21.9,21.9s21.9-9.8,21.9-21.9
					S241.6,259.5,229.5,259.5z M234.8,280.9c0-0.2,0.1-0.2,0.2-0.2c0,0,0.1,0,0.1,0c0,0,0.1,0,0.2,0.1c0.2,0.1,0.5,0.2,0.8,0.3
					c0.3,0.1,0.6,0.1,0.9,0.1c0.5,0,0.8-0.1,1.1-0.2c0.2-0.1,0.4-0.4,0.4-0.7c0-0.2-0.1-0.4-0.2-0.5c-0.1-0.1-0.4-0.3-0.7-0.4
					l-1.1-0.3c-0.5-0.2-0.9-0.4-1.2-0.7c-0.2-0.3-0.4-0.7-0.4-1.1c0-0.3,0.1-0.6,0.2-0.8c0.1-0.2,0.3-0.4,0.5-0.6
					c0.2-0.2,0.5-0.3,0.8-0.4c0.3-0.1,0.6-0.1,0.9-0.1c0.2,0,0.3,0,0.5,0c0.2,0,0.3,0.1,0.5,0.1c0.1,0,0.3,0.1,0.4,0.1
					c0.1,0,0.2,0.1,0.3,0.1c0.1,0,0.2,0.1,0.2,0.2c0,0.1,0.1,0.2,0.1,0.2v0.3c0,0.2-0.1,0.2-0.2,0.2c-0.1,0-0.2,0-0.3-0.1
					c-0.4-0.2-0.9-0.3-1.4-0.3c-0.4,0-0.7,0.1-1,0.2c-0.2,0.1-0.3,0.4-0.3,0.6c0,0.2,0.1,0.4,0.2,0.5c0.1,0.1,0.4,0.3,0.8,0.4l1,0.3
					c0.5,0.2,0.9,0.4,1.1,0.7c0.2,0.3,0.3,0.6,0.3,1c0,0.3-0.1,0.6-0.2,0.8c-0.1,0.2-0.3,0.5-0.5,0.6c-0.2,0.2-0.5,0.3-0.8,0.4
					c-0.3,0.1-0.7,0.2-1.1,0.2l0,0l0,0l0,0c-0.4,0-0.8,0-1.1-0.1c-0.4-0.1-0.6-0.2-0.8-0.3c-0.1-0.1-0.2-0.1-0.2-0.2
					c0-0.1,0-0.1,0-0.2V280.9z M225.6,275.4h0.7c0.1,0,0.2,0,0.3,0.1c0.1,0,0.1,0.1,0.1,0.3l1.2,4.8l1.1-4.8c0-0.1,0.1-0.2,0.1-0.3
					c0.1-0.1,0.2-0.1,0.3-0.1h0.6c0.1,0,0.2,0,0.3,0.1c0.1,0,0.1,0.1,0.1,0.3l1.2,4.9l1.3-4.9c0-0.1,0.1-0.2,0.1-0.3
					c0.1-0.1,0.2-0.1,0.3-0.1h0.7c0.1,0,0.2,0.1,0.2,0.2c0,0,0,0.1,0,0.1c0,0.1,0,0.1-0.1,0.2l-1.8,5.6c0,0.1-0.1,0.2-0.2,0.3
					c-0.1,0.1-0.2,0.1-0.3,0.1h-0.6c-0.1,0-0.2,0-0.3-0.1c-0.1-0.1-0.1-0.1-0.1-0.3l-1.1-4.7l-1.1,4.7c0,0.1-0.1,0.2-0.1,0.3
					c-0.1,0.1-0.2,0.1-0.3,0.1l-0.6,0c-0.1,0-0.2,0-0.3-0.1c-0.1,0-0.1-0.1-0.2-0.3l-1.7-5.6c0-0.1-0.1-0.2-0.1-0.3
					C225.4,275.5,225.5,275.4,225.6,275.4z M223.2,276.6c-0.2-0.2-0.6-0.3-1.2-0.3c-0.3,0-0.5,0-0.8,0.1c-0.3,0.1-0.5,0.1-0.8,0.2
					c-0.1,0-0.2,0.1-0.3,0.1c0,0-0.1,0-0.1,0c-0.1,0-0.2-0.1-0.2-0.2v-0.4c0-0.1,0-0.2,0.1-0.3c0.1-0.1,0.1-0.1,0.2-0.2
					c0.3-0.1,0.6-0.2,0.9-0.3c0.4-0.1,0.8-0.1,1.1-0.1c0.9,0,1.5,0.2,1.9,0.6c0.4,0.4,0.6,1,0.6,1.8v2.4l0,0l0,0
					c0,0.3,0,0.5,0.1,0.6c0.1,0.2,0.1,0.3,0.2,0.5c0,0.1,0.1,0.1,0.1,0.2c0,0.1,0,0.1-0.1,0.2l-0.5,0.3c-0.1,0-0.1,0.1-0.2,0.1
					c-0.1,0-0.1,0-0.2-0.1c-0.1-0.1-0.2-0.2-0.3-0.3c-0.1-0.1-0.2-0.3-0.2-0.4c-0.6,0.7-1.3,1-2.1,1c-0.6,0-1.1-0.2-1.5-0.5
					c-0.4-0.4-0.5-0.8-0.5-1.4c0-0.6,0.2-1.1,0.7-1.5c0.4-0.4,1-0.6,1.8-0.6c0.2,0,0.5,0,0.8,0.1c0.3,0,0.5,0.1,0.8,0.2v-0.5
					C223.5,277.2,223.4,276.8,223.2,276.6z M238.4,285.6c-2.4,1.8-5.9,2.7-8.9,2.7c-4.2,0-8-1.6-10.8-4.1c-0.2-0.2,0-0.5,0.2-0.3
					c3.1,1.8,6.9,2.9,10.8,2.9c2.7,0,5.6-0.6,8.3-1.7C238.4,284.9,238.8,285.3,238.4,285.6z M239,287.4c-0.2,0.2-0.4,0.1-0.3-0.1
					c0.3-0.7,0.9-2.3,0.6-2.7l0,0c-0.3-0.4-2-0.2-2.8-0.1c-0.2,0-0.3-0.2-0.1-0.3c1.4-1,3.6-0.7,3.9-0.4
					C240.7,284,240.3,286.3,239,287.4z"/>
				<path id="XMLID_133_" class="st1" d="M222.2,278.9c-0.5,0-0.8,0.1-1.1,0.3c-0.2,0.2-0.4,0.5-0.4,0.8c0,0.3,0.1,0.6,0.3,0.8
					c0.2,0.2,0.4,0.3,0.8,0.3c0.2,0,0.5,0,0.7-0.1c0.3-0.1,0.5-0.2,0.7-0.5c0.1-0.1,0.2-0.3,0.2-0.5c0-0.2,0.1-0.4,0.1-0.6v-0.3
					c-0.2-0.1-0.4-0.1-0.7-0.1C222.6,279,222.4,278.9,222.2,278.9z"/>
			</g>
			<g id="XMLID_145_">
				<path id="XMLID_142_" class="st1" d="M728.4,293.1c5.4-1.1,9.9-2,9.9-2l0.1,0l-5.1-7c-2.8-3.8-5.1-7-5.1-7s5.3-16.7,5.3-16.8
					c0,0,3.6,7.1,8.7,17.3l8.7,17.4l0.1,0.1h-16.2h-16.2L728.4,293.1z"/>
				<path id="XMLID_140_" class="st1" d="M708.9,290.9c0,0,2.4-4.8,5.3-10.7l5.3-10.7l6.2-6c3.4-3.3,6.2-6,6.2-6
					c0,0.1-0.1,0.2-0.1,0.3l-6.8,16.7l-6.6,16.4h-4.8C711.1,291,708.9,290.9,708.9,290.9z"/>
			</g>
			<line id="XMLID_144_" class="st2" x1="482.5" y1="9" x2="482.5" y2="58"/>
			<line id="XMLID_146_" class="st2" x1="479.5" y1="508" x2="479.5" y2="557"/>
		</g>
	</g>
	<g id="XMLID_132_">
		<path id="XMLID_130_" class="st3" d="M482,55.8c-124.3,0-225.2,100.8-225.2,225.2S357.7,506.2,482,506.2S707.2,405.4,707.2,281
			S606.3,55.8,482,55.8z M478.7,373.2c-49.8,0-90.2-40.4-90.2-90.2s40.4-90.2,90.2-90.2s90.2,40.4,90.2,90.2
			S528.5,373.2,478.7,373.2z"/>
		<g id="XMLID_131_">
			<path id="XMLID_97_" class="st1" d="M320.2,199.9c-0.9-0.6-2-1-3.2-1c-0.1,0-0.3,0-0.4,0l0,0c-0.7,0-1.3,0.1-1.9,0.2l0.1,0
				c-0.3-2-1.5-3.7-3.2-4.7l0,0l-0.6-0.4l-0.4,0.6c-0.5,0.8-0.9,1.6-1.1,2.6l0,0.1c-0.1,0.5-0.2,1-0.2,1.6c0,1.2,0.4,2.4,1,3.4l0,0
				c-0.9,0.4-2.1,0.7-3.2,0.8h0h-29.3c-0.8,0-1.4,0.6-1.4,1.4l0,0c0,0.1,0,0.2,0,0.3c0,2.6,0.5,5.1,1.3,7.4l0-0.1
				c0.8,2.4,2.4,4.4,4.4,5.8l0,0c2.6,1.3,5.7,2.1,8.9,2.1c0.3,0,0.6,0,0.9,0l0,0c0,0,0.1,0,0.1,0c1.9,0,3.7-0.2,5.5-0.5l-0.2,0
				c2.7-0.5,5.1-1.4,7.2-2.6l-0.1,0.1c1.9-1.1,3.5-2.4,4.8-3.9l0,0c2-2.3,3.6-5,4.7-8l0.1-0.2h0.4c0.1,0,0.2,0,0.3,0
				c1.8,0,3.5-0.7,4.7-1.9l0,0c0.6-0.5,1-1.2,1.3-1.9l0,0l0.2-0.5L320.2,199.9z M280.2,202.1h3.9c0.2,0,0.3-0.2,0.3-0.3l0,0l0,0
				v-3.5v0c0-0.2-0.2-0.3-0.3-0.3h-3.9c-0.2,0-0.3,0.2-0.3,0.3l0,0v3.5c0,0,0,0,0,0C279.8,201.9,280,202.1,280.2,202.1
				C280.2,202.1,280.2,202.1,280.2,202.1L280.2,202.1L280.2,202.1z M285.6,202.1h3.9c0.2,0,0.3-0.2,0.3-0.3l0,0l0,0v-3.5v0
				c0-0.2-0.2-0.3-0.3-0.3h-3.9l0,0c-0.2,0-0.3,0.2-0.3,0.3l0,0l0,0v3.5C285.3,201.9,285.4,202.1,285.6,202.1L285.6,202.1
				L285.6,202.1z M291.1,202.1h3.9c0.2,0,0.3-0.2,0.3-0.3l0,0l0,0v-3.5v0c0-0.2-0.2-0.3-0.3-0.3h-3.9c-0.2,0-0.3,0.2-0.3,0.3l0,0
				v3.5C290.8,201.9,290.9,202.1,291.1,202.1L291.1,202.1L291.1,202.1z M296.5,202.1h3.9l0,0c0.2,0,0.3-0.2,0.3-0.3v-3.5l0,0
				c0-0.2-0.2-0.3-0.3-0.3l0,0h-3.9c-0.2,0-0.3,0.2-0.3,0.3l0,0v3.5c0,0,0,0,0,0C296.2,201.9,296.4,202.1,296.5,202.1
				C296.5,202.1,296.5,202.1,296.5,202.1L296.5,202.1z M285.6,197.1h3.9c0.2,0,0.3-0.2,0.3-0.3l0,0l0,0v-3.5l0,0
				c0-0.2-0.2-0.3-0.3-0.3h-3.9c-0.2,0-0.3,0.2-0.3,0.3v3.5C285.3,196.9,285.4,197.1,285.6,197.1L285.6,197.1z M291.1,197.1h3.9
				c0.2,0,0.3-0.2,0.3-0.3l0,0v-3.5l0,0c0-0.2-0.2-0.3-0.3-0.3h-3.9c-0.2,0-0.3,0.2-0.3,0.3l0,0l0,0v3.5
				C290.8,196.9,290.9,197.1,291.1,197.1L291.1,197.1L291.1,197.1z M296.5,197.1h3.9c0.2,0,0.3-0.2,0.3-0.3v-3.5
				c0-0.2-0.2-0.3-0.3-0.3h-3.9c-0.2,0-0.3,0.2-0.3,0.3l0,0l0,0v3.5C296.2,196.9,296.4,197.1,296.5,197.1L296.5,197.1z M296.5,192
				h3.9l0,0c0.2,0,0.3-0.2,0.3-0.3l0,0l0,0v-3.5c0-0.2-0.2-0.3-0.3-0.3l0,0h-3.9c-0.2,0-0.3,0.2-0.3,0.3l0,0v3.5c0,0,0,0,0,0
				C296.2,191.9,296.4,192,296.5,192C296.5,192,296.5,192,296.5,192L296.5,192L296.5,192z M302,202.1h3.9l0,0c0.2,0,0.3-0.2,0.3-0.3
				v-3.5l0,0c0-0.2-0.2-0.3-0.3-0.3l0,0H302l0,0c-0.2,0-0.3,0.2-0.3,0.3v3.5C301.7,201.9,301.8,202.1,302,202.1L302,202.1L302,202.1
				z"/>
			<g id="XMLID_102_">
				<path id="XMLID_103_" class="st1" d="M394,76.5v12.1l10.5,6.1V82.6L394,76.5z M416,89.4l-10.5-6.1v12.1l10.5,6.1V89.4z
					 M417.2,101.6V89.4l10.5-6.1v12.1L417.2,101.6z M416,115l-10.5-6.1V96.8l10.5,6.1V115z"/>
			</g>
			<path id="XMLID_112_" class="st1" d="M557,111.6h6.3l-1.9,5.9H557V111.6z M557,100.4h10l-1.9,5.9H557V100.4z M557,89.2h13.7
				l-1.9,5.9H557V89.2z M576.9,89.2h15.6v5.9h-17.6L576.9,89.2z M571.2,106.3l2-5.9h19.4v5.9H571.2z M569.5,111.6h23.1v5.9h-25
				L569.5,111.6z"/>
			<g id="Page-1">
				<g id="Dribbble-Light-Preview" transform="translate(-140.000000, -7559.000000)">
					<g id="icons" transform="translate(56.000000, 160.000000)">
						<path id="github-_x5B__x23_142_x5D_" class="st1" d="M755.2,7590c12,0,21.8,10,21.8,22.3c0,9.9-6.2,18.2-14.9,21.2
							c-1.1,0.2-1.5-0.5-1.5-1.1c0-0.7,0-3.1,0-6.1c0-2.1-0.7-3.4-1.5-4.1c4.8-0.6,9.9-2.4,9.9-11c0-2.4-0.8-4.4-2.2-6
							c0.2-0.6,1-2.8-0.2-5.9c0,0-1.8-0.6-6,2.3c-1.7-0.5-3.6-0.7-5.4-0.8c-1.8,0-3.7,0.3-5.4,0.8c-4.2-2.9-6-2.3-6-2.3
							c-1.2,3.1-0.4,5.3-0.2,5.9c-1.4,1.6-2.2,3.6-2.2,6c0,8.5,5.1,10.5,9.9,11c-0.6,0.6-1.2,1.5-1.4,3c-1.2,0.6-4.4,1.6-6.3-1.9
							c0,0-1.2-2.1-3.3-2.3c0,0-2.1,0-0.1,1.4c0,0,1.4,0.7,2.4,3.3c0,0,1.3,4,7.3,2.6c0,1.9,0,3.6,0,4.2c0,0.6-0.4,1.3-1.5,1.1
							c-8.6-2.9-14.9-11.3-14.9-21.2C733.5,7600,743.2,7590,755.2,7590"/>
					</g>
				</g>
			</g>
			<path id="XMLID_117_" class="st1" d="M647,353.9l3.7-4.8l13.7-5.6v-4l12,8.8l-24.5,4.8v13.4L647,365V353.9z M686,346.6v23.8
				l-9.4,8l-15.1-5v5l-9.7-12.1l24.5,2.9v-21.1L686,346.6z"/>
			<g id="_x35_151e0c8492e5103c096af88a51f9b27">
				<path id="XMLID_123_" class="st1" d="M566.2,461.1l6.5-2.6v0l-6.5-2.6V453l9.9,4.4v2.1l-9.9,4.4V461.1z M589.1,464.1v2.6h-11.7
					v-2.6H589.1z M591.4,442H564c-1.5,0-2.7,1.2-2.7,2.7v27.4c0,1.5,1.2,2.7,2.7,2.7h27.4c1.5,0,2.7-1.2,2.7-2.7v-27.4
					C594.1,443.3,592.9,442,591.4,442z M591.4,472.2H564v-23.3h27.4V472.2L591.4,472.2z"/>
			</g>
			<path id="XMLID_128_" class="st1" d="M388,466.3C388,466.3,388,466.3,388,466.3c-0.9,0-1.6,0.7-1.6,1.6s0.7,1.6,1.6,1.6
				c0,0,0,0,0,0h7.5c0,0,0,0,0,0c0.9,0,1.6-0.7,1.6-1.6s-0.7-1.6-1.6-1.6c0,0,0,0,0,0h0L388,466.3z M392.7,458.8
				c0.2-0.3,0.3-0.6,0.3-1c0-0.4-0.2-0.8-0.4-1.2l0,0l-9.5-10.1c-0.3-0.3-0.8-0.5-1.2-0.5c-1,0-1.8,0.8-1.8,1.8
				c0,0.4,0.2,0.8,0.4,1.2l0,0l7.9,8.4v0.2l-12.6,9.1c-0.4,0.3-0.7,0.8-0.7,1.4c0,1,0.8,1.8,1.8,1.8c0.4,0,0.7-0.1,1-0.3l0,0
				l13.9-10C392.2,459.5,392.5,459.2,392.7,458.8L392.7,458.8L392.7,458.8z M406.9,443C406.9,443,406.9,443,406.9,443
				c0.8,0,1.4,0.6,1.4,1.3c0,0.1,0,0.3-0.1,0.4l0,0l-6.2,27c-0.3,1-1.1,1.7-2.1,1.8h0H369c0,0,0,0-0.1,0c-0.7,0-1.3-0.6-1.3-1.3
				c0-0.1,0-0.3,0.1-0.4l0,0l6.2-27c0.3-1,1.1-1.7,2.1-1.8h0H406.9z"/>
			<path id="XMLID_129_" class="st1" d="M281.6,371.4c3.1-2,6.8-5.4,5.4-9.5c-0.8-2.2-1.8-4.1-1.9-6.5c-0.1-2,0.2-4.1,0.9-6
				c2.8-7.5,11.1-11,18.6-8.8c6.9,2.1,11.7,10.1,8.8,17.2c-1.7,4.1-2.4,7.2,1.3,10.3c1,0.9,3.4,2.1,3.4,3.7c0,2-3.9-0.4-4.3-0.8
				c0.5,0.9,5.4,6,2.3,6.4c-2.9,0.3-5.4-3.7-7.1-5.4c-2.9-2.9-2.4,3.5-2.4,4.8c0,2.1-1.5,6.3-4.2,3.6c-2.2-2.3-1.3-5.9-2.9-8.4
				c-1.7-2.8-4.4,2.8-5.1,3.8c-0.8,1.1-4.7,6.6-6.2,3.7c-1.2-2.4,0.7-6.1,1.7-8.2c-0.4,0.8-2.9,1.9-3.6,2.3
				c-1.6,0.9-3.4,1.3-5.3,1.2C277,374.5,280,372.4,281.6,371.4L281.6,371.4z"/>
		</g>
	</g>
	<g id="XMLID_85_">
		<path id="XMLID_127_" class="st4" d="M480,106.5c-97.5,0-176.5,79-176.5,176.5s79,176.5,176.5,176.5s176.5-79,176.5-176.5
			S577.5,106.5,480,106.5z M479.7,373.3c-49.8,0-90.2-40.4-90.2-90.2s40.4-90.2,90.2-90.2s90.2,40.4,90.2,90.2
			S529.5,373.3,479.7,373.3z"/>
		<g id="XMLID_83_">
			<path id="XMLID_68_" d="M327.6,308.5c-4.8-0.3-9.4-1.5-12.3-3.1c-1.6-0.9-2.9-2-3.4-3l-0.3-0.6v-18.6v-18.6l0.2-0.5
				c1-2.1,4.3-4,8.9-5.1c1.6-0.4,3.8-0.8,5.6-1c1.9-0.2,6.8-0.2,8.7,0.1c5,0.6,9.2,1.9,11.8,3.7c1,0.7,2,1.8,2.4,2.5l0.3,0.6l0,18.6
				l0,18.6l-0.2,0.5c-0.1,0.3-0.5,0.8-0.9,1.2c-2.2,2.3-6.8,4-12.9,4.7C334.3,308.5,328.9,308.6,327.6,308.5L327.6,308.5z
				 M336.4,292.6c0,0-0.7-0.7-1.6-1.4c-0.8-0.7-1.6-1.4-1.6-1.4s0.1-0.2,0.3-0.3c0.2-0.1,0.7-0.5,1-0.9c0.9-1,1.4-2.2,1.4-3.8
				c0-1.6-0.5-2.8-1.4-3.8c-1-1-2-1.4-3.6-1.4c-2.5,0-4.3,1.4-4.9,3.8c-0.2,0.8-0.2,2.4,0,3.1c0.5,1.8,2,3.2,3.9,3.5
				c0.6,0.1,0.7,0.2,1.1,0.6c0.3,0.3,0.8,0.8,1.2,1.2l0.7,0.7h1.8C335.6,292.6,336.4,292.6,336.4,292.6L336.4,292.6z M330.1,287.4
				c-0.4-0.2-0.6-0.4-0.9-0.9c-0.2-0.4-0.2-0.6-0.2-1.6c0-1,0-1.2,0.2-1.6c0.3-0.7,0.8-1,1.5-1c1-0.1,1.6,0.4,1.9,1.6
				c0.4,1.4,0,3-0.9,3.5C331.2,287.6,330.5,287.6,330.1,287.4L330.1,287.4z M321.9,290.1c1.9-0.4,3-1.5,3-3.1c0-1.4-0.7-2.3-2.7-3.1
				c-1.1-0.5-1.5-0.8-1.5-1.2c0-0.3,0.4-0.6,0.8-0.7c0.4-0.1,1.6,0.1,2.3,0.4l0.6,0.2v-1.3V280l-0.6-0.1c-0.4-0.1-1.2-0.1-2.1-0.1
				c-1.3,0-1.6,0-2.1,0.2c-1.4,0.6-2.1,1.5-2.1,3c0,1.4,0.7,2.2,2.5,3c1.1,0.5,1.5,0.8,1.5,1.2c0,0.9-1.4,1-3,0.2
				c-0.4-0.2-0.8-0.4-0.8-0.4s-0.1,0.6-0.1,1.3c0,1.4,0,1.4,0.2,1.4C318.8,290.1,320.9,290.3,321.9,290.1z M344,288.8v-1.1h-1.7
				h-1.7v-3.9v-3.9H339h-1.5v5.1v5.1h3.3h3.3L344,288.8L344,288.8z M333.2,268.7c3.1-0.2,5.4-0.6,7.4-1.3c2-0.7,3.2-1.5,3.5-2.4
				c0.1-0.3,0.1-0.5,0-0.8c-0.6-1.7-4.2-3-9.7-3.5c-2.4-0.2-6.6-0.2-8.9,0.2c-3.4,0.5-6.2,1.3-7.4,2.3c-2.5,2,0.1,4.2,6.3,5.2
				C327,268.8,330.4,268.9,333.2,268.7L333.2,268.7z"/>
			<path id="XMLID_28_" d="M366.8,154.4h7.6v35.3c-3.9,0.7-6.8,1-9.9,1c-9.3,0-14.2-4.2-14.2-12.3c0-7.8,5.2-12.8,13.1-12.8
				c1.2,0,2.2,0.1,3.3,0.4V154.4z M366.8,172.2c-0.9-0.3-1.6-0.4-2.6-0.4c-3.9,0-6.1,2.4-6.1,6.5c0,4.1,2.1,6.3,6,6.3
				c0.8,0,1.5,0,2.6-0.2V172.2z"/>
			<path id="XMLID_26_" d="M591.6,153c-0.4,0-0.7,0.1-1,0.2c0.7,0.4,1,1,1.2,1.7c0,0.1,0,0.2,0,0.2s0,0.2,0,0.2c0,1.2-0.3,1.3-0.6,2
				c-0.4,0.9-0.3,1.8,0.2,2.6c0,0.1,0.1,0.2,0.2,0.3c-0.5-3.3,2.3-3.8,2.8-4.8c0-0.9-0.7-1.5-1.3-1.9C592.5,153.1,592,153,591.6,153
				z M595.7,153.7c0,0.3,0,0.2,0,0.4c0,0.1,0,0.2,0,0.4c0,0.1,0,0.2-0.1,0.3s-0.1,0.2-0.1,0.3c0,0.1-0.1,0.2-0.1,0.3
				c0,0-0.1,0.1-0.1,0.2s0,0.1-0.1,0.1c-0.1,0.1-0.1,0.2-0.2,0.3l-0.2,0.2c-0.1,0.1-0.2,0.2-0.2,0.2c-0.3,0.2-0.6,0.4-0.9,0.6
				c-0.1,0.1-0.2,0.1-0.3,0.2c-0.1,0.1-0.2,0.1-0.2,0.2l-0.2,0.2c-0.1,0.1-0.2,0.2-0.2,0.3c-0.1,0.1-0.1,0.2-0.2,0.3
				c0,0.1-0.1,0.2-0.2,0.3c0,0.1-0.1,0.2-0.1,0.3s-0.1,0.2-0.1,0.3c0,0,0,0.1,0,0.2c0,0,0,0.1,0,0.2v0.6c0,0.1,0,0.2,0,0.3
				c0,0.1,0,0.2,0.1,0.3c0,0.1,0.1,0.2,0.1,0.3c0,0.1,0.1,0.1,0.1,0.2l-3-1.2c-0.5-0.2-1-0.3-1.5-0.4c-0.3-0.1-0.6-0.1-0.8-0.2
				c-0.8-0.2-1.6-0.3-2.4-0.4h-0.1c-0.8-0.1-1.5-0.1-2.3-0.1c-0.6,0-1.2,0-1.7,0.1c-0.8,0-1.6,0.2-2.4,0.3l-0.6,0.1
				c-0.4,0.1-0.8,0.2-1.2,0.3c-0.2,0-0.4,0.1-0.6,0.2c-0.2,0.1-0.4,0.2-0.6,0.2c-0.2,0.1-0.3,0.1-0.4,0.2c0,0,0,0-0.1,0
				c-0.1,0.1-0.2,0.1-0.4,0.2c0,0-0.1,0-0.1,0c-0.2,0.1-0.3,0.2-0.4,0.2c-0.1,0-0.2,0.1-0.3,0.1c0,0-0.1,0-0.1,0.1
				c-0.1,0.1-0.2,0.1-0.4,0.2s-0.2,0.1-0.3,0.2s-0.2,0.1-0.3,0.2c0,0,0,0,0,0c-0.1,0-0.2,0.1-0.2,0.2l0,0c-0.1,0-0.1,0.1-0.2,0.2
				c0,0,0,0-0.1,0c-0.1,0-0.1,0.1-0.2,0.2c0,0,0,0,0,0l-0.2,0.2l0,0l-0.2,0.2c0,0,0,0,0,0l-0.2,0.2c0,0-0.1,0-0.1,0.1l-0.2,0.2
				c0,0,0,0,0,0.1l-0.3,0.3l0,0c-0.2,0.2-0.4,0.4-0.7,0.6c-0.2,0.2-0.5,0.4-0.8,0.6s-0.5,0.4-0.8,0.5s-0.6,0.3-0.8,0.4
				c-0.3,0.1-0.6,0.2-0.8,0.3c-0.6,0.1-1.1,0.4-1.6,0.4c0-0.2-0.1-0.2-0.2-0.2c-0.1,0-0.2,0-0.3,0.1c-0.1,0-0.2,0.1-0.3,0.1
				c-0.1,0-0.2,0.1-0.3,0.2c-0.1,0.1-0.2,0.1-0.3,0.2s-0.2,0.2-0.3,0.2s-0.2,0.2-0.3,0.2c-0.1,0.1-0.2,0.2-0.2,0.3s-0.2,0.2-0.2,0.3
				c-0.1,0.1-0.1,0.2-0.2,0.3c0,0.1-0.1,0.2-0.2,0.4l-0.1,0.4c0,0.1,0,0.2-0.1,0.3v0c0,0.1,0,0.3,0,0.4c0,0,0,0,0,0.1v0.2
				c0,0.1,0,0.2,0,0.2c0,0.1,0,0.2,0.1,0.2s0.1,0.2,0.2,0.2c0,0.1,0.1,0.2,0.2,0.2c0.1,0.1,0.2,0.2,0.2,0.2c0.1,0.1,0.2,0.2,0.2,0.2
				c0.3,0.3,0.4,0.4,0.8,0.6c0.1,0,0.1,0.1,0.2,0.1h0v0.1c0,0.1,0,0.2,0.1,0.3s0.1,0.2,0.1,0.3l0.1,0.2c0,0,0,0,0,0.1
				c0,0.1,0.1,0.2,0.2,0.3c0.1,0.1,0.1,0.2,0.2,0.3l0.2,0.2l0.2,0.2h0c0.1,0.1,0.2,0.1,0.2,0.2s0.2,0.1,0.3,0.2s0.2,0.1,0.3,0.2
				c0.1,0,0.2,0.1,0.3,0.1c0,0,0,0,0,0c0,0,0.1,0,0.2,0c0,0.7,0,1.4,0,1.6c0.1,0.3,0.7-0.6,1.3-1.5c-0.1,0.9-0.1,2,0,2.3
				c0.2,0.3,0.9-0.7,1.6-1.8c9.3-2.1,17.8,4.3,18.7,13.4c-0.2-1.4-1.9-2.2-2.7-2c-0.4,1-1.1,2.2-2.1,3c0.1-0.9,0-1.7-0.1-2.6
				c-0.3,1.2-0.8,2.3-1.6,3.3c-1.2,0.1-2.5-0.5-3.1-1.4c0,0-0.1-0.1-0.1-0.2c0-0.1-0.1-0.2-0.1-0.3c0-0.1-0.1-0.2-0.1-0.3v-0.3v-0.2
				c0-0.1,0-0.2,0.1-0.3s0-0.2,0.1-0.3c0-0.1,0.1-0.2,0.2-0.3c0.2-0.6,0.2-1.2-0.2-1.4l-0.2-0.1c0,0-0.1,0-0.2,0s-0.1,0-0.1,0
				c-0.1,0-0.2,0-0.3-0.1c-0.1,0-0.2,0-0.3,0s-0.2,0-0.3,0h-0.2c-0.1,0-0.2,0-0.3,0c-0.1,0-0.2,0-0.3,0c-0.1,0-0.2,0-0.3,0.1
				s-0.2,0.1-0.3,0.1l-0.2,0.1c-3.1,2-1.2,6.7,0.8,8c-0.8,0.2-1.6,0.3-1.8,0.5l0,0c0.6,0.4,1.2,0.6,1.8,0.9c0.8,0.3,1.7,0.5,2.1,0.6
				c1.1,0.2,2.2,0.3,3.3,0.2c5.8-0.4,10.6-4.8,11.4-10.6c0,0.1,0,0.2,0.1,0.4c0,0.2,0.1,0.5,0.1,0.8c0,0.1,0,0.2,0,0.4v0
				c0,0.1,0,0.2,0,0.4c0,0.2,0,0.3,0,0.4v1.7c0,0.1,0,0.2,0,0.3v0.1c0,0.1,0,0.2,0,0.4c0,0.1,0,0.2-0.1,0.4v0c0,0.1,0,0.2-0.1,0.4v0
				c0,0.1,0,0.2-0.1,0.4v0l-0.1,0.4v0c0,0.1-0.1,0.3-0.1,0.4s-0.1,0.2-0.2,0.4c0,0.1-0.1,0.3-0.2,0.4c0,0.1-0.1,0.2-0.2,0.4
				c0,0.1-0.1,0.2-0.2,0.4c0,0,0,0.1,0,0.1s0,0,0,0c-0.8,1.7-2.1,3.2-3.7,4.4c-0.1,0.1-0.2,0.2-0.3,0.2c0,0-0.1,0-0.1,0.1
				c-0.1,0.1-0.2,0.1-0.3,0.2l0,0.1c0.2,0,0.4,0,0.6-0.1c0.4,0,0.7-0.1,1-0.2c0.1,0,0.2,0,0.3-0.1c0.1,0,0.1,0,0.2,0s0.2,0,0.3,0
				c0.1,0,0.2,0,0.2-0.1c1.3-0.3,2.6-0.8,3.8-1.3c-2.1,2.9-4.9,5.2-8.1,6.7c1.5-0.1,3-0.4,4.5-0.8c5.3-1.5,9.7-5.1,12.4-9.9
				c-0.6,3-1.7,5.9-3.5,8.5c1.3-0.8,2.4-1.8,3.5-2.9c2.9-3.1,4.9-7,5.5-11.2c0.4,2.1,0.6,4.2,0.4,6.3c9.5-13.2,0.8-26.9-2.9-30.6
				c0,0,0,0,0-0.1l0,0c0,0.2,0,0.3,0,0.5c0,0.3-0.1,0.6-0.1,0.9c-0.1,0.3-0.2,0.6-0.2,0.9c-0.1,0.3-0.2,0.6-0.3,0.8
				c-0.1,0.3-0.2,0.6-0.4,0.8c-0.2,0.2-0.3,0.5-0.5,0.8c-0.2,0.2-0.4,0.5-0.6,0.7c-0.2,0.2-0.4,0.4-0.6,0.7
				c-0.1,0.1-0.2,0.2-0.4,0.3c-0.1,0.1-0.2,0.2-0.3,0.3c-0.2,0.2-0.5,0.4-0.8,0.5c-0.2,0.2-0.5,0.3-0.8,0.4l-0.8,0.4
				c-0.3,0.1-0.6,0.2-0.8,0.3c-0.3,0.1-0.6,0.2-0.9,0.2c-0.3,0-0.6,0.1-0.9,0.1c-0.2,0-0.4,0-0.6,0c-0.3,0-0.6,0-0.9,0
				c-0.3,0-0.6-0.1-0.9-0.1c-0.3,0-0.6-0.1-0.9-0.2c0.3,0,0.6,0,0.9-0.1c0.3,0,0.6-0.1,0.9-0.2c0.3-0.1,0.6-0.2,0.8-0.3l0.8-0.4
				c0.3-0.1,0.5-0.3,0.8-0.4c0.2-0.2,0.5-0.4,0.8-0.5c0.2-0.2,0.5-0.4,0.7-0.6c0.2-0.2,0.4-0.4,0.6-0.6c0.2-0.2,0.4-0.5,0.6-0.7
				c0,0,0-0.1,0.1-0.1c0.1-0.2,0.3-0.4,0.4-0.6c0.2-0.3,0.3-0.5,0.4-0.8c0.1-0.3,0.2-0.6,0.3-0.8l0.2-0.8c0-0.3,0.1-0.6,0.1-0.9
				c0-0.3,0-0.6,0-0.9c0-0.2,0-0.4,0-0.6c0-0.3-0.1-0.6-0.1-0.9c0-0.3-0.1-0.6-0.2-0.9c-0.1-0.3-0.2-0.6-0.3-0.8
				c-0.1-0.3-0.2-0.6-0.4-0.8c-0.2-0.3-0.3-0.5-0.4-0.8c-0.2-0.2-0.4-0.5-0.5-0.7c-0.2-0.2-0.4-0.4-0.6-0.7
				c-0.1-0.1-0.2-0.2-0.4-0.3c-0.6-0.5-1.2-0.9-1.8-1.3c-0.1,0-0.2-0.1-0.3-0.1C596.5,154,596.1,153.9,595.7,153.7z"/>
			<g id="XMLID_30_">
				<path id="XMLID_34_" d="M571.3,389.2c0,7.2,4.2,13.4,10.3,16.4l-8.7-23.8C571.9,384,571.3,386.5,571.3,389.2z M601.9,388.2
					c0-2.3-1.2-3.8-1.9-5c-0.9-1.5-1.8-2.8-1.8-4.3c0-1.7,1.7-3.2,3.5-3.2c0.1,0,0.2,0,0.2,0c-3.2-3-7.6-4.8-12.3-4.8
					c-6.1,0-11.6,3-14.9,7.7c0.3,0.1,0.3,0,0.7,0c1.9,0,4.9-0.2,4.9-0.2c1-0.1,1.1,1.4,0.1,1.5c0,0-1,0.1-2.1,0.2l6.8,20.2l4-12
					l-3-8.3c-1-0.1-1.9-0.2-1.9-0.2c-1-0.1-0.9-1.6,0.1-1.5c0,0,3,0.2,4.8,0.2c1.9,0,4.9-0.2,4.9-0.2c1-0.1,1.1,1.4,0.1,1.5
					c0,0-1,0.1-2.1,0.2l6.7,20.1l1.8-6.1C601.4,391.8,601.9,389.8,601.9,388.2z M589.9,390.7l-5.5,15.9c1.6,0.5,3.4,0.7,5.1,0.7
					c2.1,0,4.2-0.4,6.1-1c0-0.1-0.1-0.2-0.1-0.3L589.9,390.7z M605.6,380.4c0.1,0.6,0.1,1.2,0.1,1.9c0,1.9-0.3,3.9-1.4,6.5
					l-5.6,16.1c5.4-3.2,9.1-9,9.1-15.8C607.8,386,607,383,605.6,380.4z"/>
				<path id="XMLID_31_" d="M566.8,389.2c0,12.6,10.2,22.8,22.8,22.8c12.6,0,22.8-10.2,22.8-22.8s-10.2-22.8-22.8-22.8
					C577,366.4,566.8,376.6,566.8,389.2z M569.1,389.2c0-11.3,9.2-20.5,20.5-20.5c11.3,0,20.5,9.2,20.5,20.5
					c0,11.3-9.2,20.5-20.5,20.5C578.3,409.7,569.1,400.5,569.1,389.2z"/>
			</g>
			<g id="XMLID_53_">
				<path id="XMLID_59_" class="st5" d="M391.4,376.3l-28.2,16.3c1.6,2.7,4.6,4.4,7.9,4.4c3.4,0,6.5-1.9,8.1-4.7l4.9,2.9
					c-2.6,4.5-7.4,7.5-13,7.5c-5.4,0-10.2-2.9-12.8-7.3l-7.2,4.2c0,0,0,0,0-0.1l-0.1,0c0.2,0.3,0.5,0.6,0.7,0.7L370,411
					c0.3,0.2,0.7,0.3,1.2,0.3s0.9-0.1,1.2-0.3l18.2-10.6c0.6-0.4,1.1-1.3,1.1-2v-21.1C391.6,377,391.6,376.6,391.4,376.3z
					 M390.4,387h-1.2l-0.3,1.6h1.6v1.8h-1.9l-0.5,2.3h-1.8l0.5-2.3h-1.4l-0.5,2.3h-1.8l0.5-2.3h-0.9v-1.8h1.2v0l0.3-1.6h-1.6v-1.8
					h1.9l0.5-2.3h1.8l-0.5,2.3h1.4l0.5-2.3h1.8l-0.5,2.3h0.9V387L390.4,387z"/>
				<polygon id="XMLID_58_" class="st5" points="385.5,388.7 387,388.7 387.3,387 385.9,387 				"/>
				<path id="XMLID_57_" class="st5" d="M356.2,387.8c0-8.3,6.7-14.9,14.9-14.9c5.5,0,10.4,3.1,13,7.5c2.1-1.2,7.2-4.2,7.2-4.2
					c0,0,0,0.1,0.1,0.1l0.1-0.1c-0.2-0.5-0.6-0.8-0.9-1l-18.3-10.5c-0.3-0.2-0.7-0.3-1.2-0.3s-0.9,0.1-1.2,0.3l-18.2,10.6
					c-0.6,0.4-1.1,1.3-1.1,2v21.1c0,0.4,0.1,0.9,0.3,1.2c0,0,5.1-3,7.2-4.2C357,393.2,356.2,390.6,356.2,387.8z"/>
				<path id="XMLID_56_" class="st5" d="M371.2,378.6c-5.1,0-9.3,4.2-9.3,9.3c0,1.7,0.5,3.4,1.3,4.7c6.8-3.9,9.3-5.4,16-9.3
					C377.7,380.4,374.6,378.6,371.2,378.6z"/>
				<path id="XMLID_55_" class="st5" d="M358.4,395.5C358.4,395.5,358.3,395.5,358.4,395.5c-2.2,1.2-7.3,4.1-7.3,4.1c0,0,0,0,0,0.1
					L358.4,395.5z"/>
				<path id="XMLID_54_" class="st5" d="M384.2,380.4C384.2,380.4,384.2,380.4,384.2,380.4l-4.9,2.9c0,0,0,0,0,0
					c-6.7,3.9-9.3,5.4-16,9.3c0,0,0,0.1,0.1,0.1l28.2-16.3c0,0,0-0.1-0.1-0.1C391.4,376.2,386.3,379.2,384.2,380.4z"/>
			</g>
			<path id="XMLID_71_" d="M632,299.2c0,0,0-20.3,0.7-20.3c0.5,0,1.2,26.1,1.2,26.1C632.9,305,632,300.8,632,299.2L632,299.2z
				 M645,279.2c-1.8-7.9-5.7-14.6-11.2-19.8l0,0c-0.7-1-1.3-2.2-1.8-3.4l0-0.1c0,0,0,0.1,0,0.1c0,1.1-0.5,2.1-1.3,2.8l0,0
				c-7,5.9-11.4,14.7-11.6,24.5v0c0,0.1,0,0.3,0,0.4c0,9.7,4.7,18.3,11.9,23.7l0.1,0.1l0.2,0.1c0.3,2.3,0.6,4.7,0.8,7h1.2
				c0.3-2.9,0.8-5.5,1.3-8l-0.1,0.5c0.8-0.5,1.5-1.1,2.1-1.7l0,0c5.5-5.1,8.9-12.3,8.9-20.3c0-0.1,0-0.2,0-0.4v0
				c0-1.9-0.2-3.8-0.5-5.6L645,279.2L645,279.2z"/>
			<path id="XMLID_75_" d="M479.6,138.6h-18.2c-0.7-2.2-1-4.5-1-6.7c0-2.4,0.3-4.6,1-6.7h29.9c3.7,0,6.7,3,6.7,6.7c0,0,0,0,0,0
				c0,3.7-3,6.7-6.7,6.7c0,0,0,0,0,0H479.6z M478.8,140.9h-16.5c1.7,4,4.6,7.4,8.3,9.8c3.7,2.4,8,3.7,12.3,3.7c7.8,0,14.6-4,18.7-10
				c-2.1-2.2-5.1-3.5-8.2-3.5L478.8,140.9z M493.4,122.9c3.2,0,6.1-1.4,8.2-3.5c-6.9-10.3-20.9-13.1-31.2-6.2
				c-3.5,2.4-6.3,5.7-8.1,9.6h16.5H493.4z"/>
			<path id="XMLID_84_" d="M495.8,419.8L473.4,444l28.2-13C500.7,426.8,498.7,422.9,495.8,419.8 M479.2,412.6
				c-3.1,0-6.1,0.6-8.8,1.7l-3,25.3l15-26.9C481.3,412.6,480.2,412.6,479.2,412.6 M501.8,432.4l-26.7,14.9l25-3
				C501.7,440.6,502.3,436.5,501.8,432.4 M491.9,454.3c3-2,5.5-4.7,7.2-7.9l-23.5,4.7L491.9,454.3z M483.8,413l-13.1,28.3l24.2-22.4
				C491.9,415.9,488,413.9,483.8,413 M481.1,458.1c2.5-0.2,4.9-0.8,7.2-1.8l-13.1-1.6L481.1,458.1z M458.4,426
				c-1,2.3-1.7,4.8-1.9,7.3l3.5,6.3L458.4,426z M468.4,415.2c-3.2,1.7-6,4.2-8,7.2l3.3,16.6L468.4,415.2z"/>
			<path id="XMLID_25_" d="M385.8,168.6v17.7c0,6.1-0.4,9-1.8,11.6c-1.2,2.4-2.9,4-6.2,5.7l-7.1-3.4c3.4-1.6,5-3,6-5.1
				c1.1-2.2,1.4-4.7,1.4-11.4v-15.1H385.8z M378.2,156.8h7.6v7.8h-7.6V156.8z"/>
		</g>
	</g>
	<g id="XMLID_52_">
		<path id="XMLID_113_" class="st6" d="M480.2,157c-69.6,0-126,56.4-126,126s56.4,126,126,126s126-56.4,126-126S549.7,157,480.2,157
			z M479.2,373.2c-49.8,0-90.2-40.4-90.2-90.2s40.4-90.2,90.2-90.2s90.2,40.4,90.2,90.2S529,373.2,479.2,373.2z"/>
		<g id="XMLID_16_">
			<g id="XMLID_7_">
				<polygon id="XMLID_15_" class="st7" points="584.8,284.7 590.6,284.7 587.7,277.7 				"/>
				<path id="XMLID_12_" class="st7" d="M587.7,266.7l-15.9,5.7l2.4,21l13.5,7.5l13.5-7.5l2.4-21L587.7,266.7z M593.9,292.8l-2-5
					h-8.4l-2,5h-3.7l9.9-22.3l9.9,22.3H593.9L593.9,292.8z"/>
				<g id="XMLID_8_">
					<polygon id="XMLID_11_" class="st7" points="587.7,284.7 587.7,277.7 584.8,284.7 					"/>
					<polygon id="XMLID_10_" class="st7" points="590.6,284.7 587.7,277.7 587.7,284.7 					"/>
					<polygon id="XMLID_9_" class="st7" points="587.7,266.7 587.7,270.5 597.6,292.8 593.9,292.8 591.9,287.8 587.7,287.8 
						587.7,300.8 601.1,293.4 603.6,272.4 					"/>
				</g>
			</g>
			<path id="XMLID_17_" d="M465,375.7l2.5,28.4l11.7,3.3l11.7-3.3l2.5-28.4H465z M486.3,389.1l-0.6,9.6l-6.6,2.2l-6.6-2.2l-0.3-4.6
				h3.3l0.1,2.1l3.4,1.2l3.4-1.2l0.2-3.8h-7.4l-0.2-3.3h7.7l0.2-3.3h-11.5l-0.3-3.3h15.3L486.3,389.1z"/>
			<path id="XMLID_42_" d="M358.2,265.6c-0.4,0.1-0.6,0.4-0.6,0.8l2.5,27.5c0,0.3,0.2,0.5,0.5,0.6l11.2,3.2c0.1,0,0.3,0,0.4,0
				l11.2-3.2c0.3-0.1,0.5-0.3,0.5-0.6l2.5-27.5c0-0.2,0-0.4-0.2-0.5c-0.1-0.1-0.3-0.2-0.5-0.2h-27.2
				C358.3,265.6,358.2,265.6,358.2,265.6C358.2,265.6,358.2,265.6,358.2,265.6z M359,267h25.7l-2.3,26.2l-10.5,3l-10.5-3L359,267z
				 M363.2,271.2c-0.4,0.1-0.6,0.4-0.6,0.8l0.9,10.3c0,0.4,0.3,0.6,0.7,0.7h11.1l-0.3,3.2l-3.2,0.7l-3.2-0.7l-0.1-1.1
				c0-0.4-0.3-0.7-0.7-0.7h-3.4c-0.2,0-0.4,0.1-0.5,0.2c-0.1,0.1-0.2,0.3-0.2,0.5l0.4,4.3c0,0.3,0.2,0.5,0.5,0.6l6.9,2.1l0.1,0
				c0.1,0,0.3,0,0.4,0l7-2.1c0.3-0.1,0.5-0.3,0.5-0.6l0.9-10.5c0-0.2,0-0.4-0.2-0.5c-0.1-0.1-0.3-0.2-0.5-0.2H368l-0.2-2.2h12.4
				c0.4,0,0.7-0.3,0.7-0.6l0.3-3.4c0-0.2,0-0.4-0.2-0.5c-0.1-0.1-0.3-0.2-0.5-0.2h-17.1C363.3,271.2,363.3,271.2,363.2,271.2z
				 M364.1,272.6h15.6l-0.2,2H367c-0.2,0-0.4,0.1-0.5,0.2c-0.1,0.1-0.2,0.3-0.2,0.5l0.3,3.5c0,0.3,0.3,0.6,0.7,0.6h11.7l-0.8,9.3
				l-6.4,1.9l-6.4-1.9l-0.3-3.1h2l0.1,1c0,0.3,0.2,0.6,0.5,0.6l3.9,0.8c0.1,0,0.2,0,0.3,0l3.8-0.8c0.3-0.1,0.5-0.3,0.5-0.6l0.4-4.5
				c0-0.2-0.1-0.4-0.2-0.5c-0.1-0.1-0.3-0.2-0.5-0.2h-11.3L364.1,272.6z"/>
			<path id="XMLID_46_" d="M464.8,167.6c-2.8,4.1-2.5,9.3-0.3,13.7c0,0.1,0.1,0.2,0.2,0.3l0.1,0.2c0,0,0,0.1,0.1,0.1
				c0,0.1,0.1,0.1,0.1,0.2l0.2,0.4l0.1,0.2l0.2,0.4l0.1,0.2c0.1,0.2,0.2,0.3,0.3,0.5l0.1,0.1c0.1,0.1,0.2,0.3,0.3,0.4l0.1,0.2
				l0.3,0.4l0.1,0.1c0.1,0.2,0.3,0.3,0.4,0.5c0,0,0,0,0,0c0.1,0.1,0.3,0.3,0.4,0.4l0.1,0.1l0.3,0.3l0.1,0.1c0.1,0.1,0.3,0.3,0.5,0.4
				l0.5,0.4l0.2,0.1l0.3,0.3l0.2,0.1l0.4,0.3l0.2,0.1c0.1,0.1,0.2,0.2,0.4,0.2l0.2,0.1c0.2,0.1,0.4,0.2,0.6,0.4l0.2,0.1l0.4,0.2
				c0.1,0,0.2,0.1,0.2,0.1l0.3,0.2l0.1,0l0.1,0.1l0.5,0.2l0.1,0c0.2,0.1,0.4,0.2,0.6,0.2l0.1,0.1l0.5,0.2l0.1,0
				c0.2,0.1,0.4,0.1,0.6,0.2l0.1,0c0.2,0.1,0.4,0.1,0.6,0.2c13.7,2.5,17.6-8.2,17.6-8.2c-3.3,4.3-9.3,5.5-14.9,4.2
				c-0.2,0-0.4-0.1-0.6-0.2l-0.2,0c-0.2-0.1-0.4-0.1-0.6-0.2l-0.1,0c-0.2-0.1-0.4-0.1-0.5-0.2l-0.1-0.1c-0.2-0.1-0.4-0.2-0.6-0.2
				l-0.1,0l-0.5-0.2l-0.1-0.1c-0.1-0.1-0.2-0.1-0.4-0.2l-0.2-0.1c-0.2-0.1-0.3-0.2-0.4-0.3l-0.2-0.1c-0.2-0.1-0.4-0.2-0.6-0.4
				c-0.1,0-0.1-0.1-0.2-0.1l-0.4-0.3c0,0-0.1-0.1-0.1-0.1l-0.4-0.3l-0.2-0.1l-0.4-0.3l-0.2-0.1l-0.4-0.4c0,0,0,0,0,0l-0.5-0.4
				l-0.1-0.1l-0.3-0.3l-0.1-0.1c-0.1-0.1-0.3-0.3-0.4-0.4c0,0,0,0,0,0c-0.1-0.2-0.3-0.3-0.4-0.5l-0.1-0.1l-0.3-0.4l-0.1-0.1
				l-0.3-0.5c-3.1-4.2-4.3-10.1-1.8-14.9 M473.6,164.1c-2,2.9-1.9,6.9-0.3,10c0.3,0.5,0.6,1,0.9,1.5c0.3,0.4,0.6,1,1.1,1.3
				c0.1,0.2,0.3,0.3,0.5,0.5l0.1,0.1c0.2,0.1,0.3,0.3,0.5,0.4c0,0,0,0,0,0c0.2,0.2,0.4,0.3,0.6,0.5l0.1,0.1c0.2,0.1,0.4,0.3,0.6,0.4
				l0,0c0.1,0.1,0.2,0.1,0.3,0.2c0,0,0.1,0.1,0.1,0.1c0.1,0.1,0.3,0.2,0.4,0.3l0.1,0l0.4,0.2c0,0,0.1,0,0.1,0.1l0.3,0.1c0,0,0,0,0,0
				c0.2,0.1,0.4,0.2,0.5,0.3l0.1,0c0.1,0.1,0.3,0.1,0.4,0.2l0.2,0.1c0.1,0,0.3,0.1,0.4,0.1l0.2,0.1c0.2,0.1,0.4,0.1,0.6,0.2
				c10.6,1.7,13-6.4,13-6.4c-2.2,3.2-6.4,4.7-11,3.5c-0.2-0.1-0.4-0.1-0.6-0.2c-0.1,0-0.1,0-0.2-0.1l-0.4-0.1l-0.2-0.1
				c-0.2-0.1-0.3-0.1-0.4-0.2l-0.1,0c-0.2-0.1-0.4-0.2-0.6-0.3l-0.3-0.1l-0.2-0.1c-0.1-0.1-0.2-0.1-0.3-0.2l-0.1,0
				c-0.1-0.1-0.3-0.2-0.4-0.3c0,0-0.1-0.1-0.1-0.1l-0.3-0.2c-0.2-0.1-0.4-0.3-0.6-0.4l-0.1-0.1c-2-1.6-3.6-3.7-4.3-6.1
				c-0.8-2.5-0.6-5.3,0.7-7.6 M480.9,161.6c-1.2,1.8-1.3,4-0.5,5.9c0.9,2.1,2.7,3.7,4.8,4.5l0.3,0.1l0.1,0l0.4,0.1
				c5.8,1.1,7.4-3,7.8-3.6c-1.4,2-3.7,2.5-6.6,1.8c-0.2-0.1-0.5-0.1-0.7-0.2c-0.3-0.1-0.6-0.2-0.8-0.3c-0.5-0.2-1-0.5-1.4-0.9
				c-2.6-1.9-4.1-5.6-2.5-8.7"/>
		</g>
	</g>
</g>
</svg>
