<?xml version="1.0" encoding="utf-8"?>
<!-- Generator: Adobe Illustrator 19.0.0, SVG Export Plug-In . SVG Version: 6.00 Build 0)  -->
<svg version="1.1" id="Layer_1" xmlns="http://www.w3.org/2000/svg" xmlns:xlink="http://www.w3.org/1999/xlink" x="0px" y="0px"
	 viewBox="-215 -3.3 528.2 567.3" style="enable-background:new -215 -3.3 528.2 567.3;" xml:space="preserve">
<style type="text/css">
	.st0{fill:#03203F;}
</style>
<g>
	<polygon class="st0" points="-10.1,295.7 86.3,295.7 38.1,179.7 	"/>
	<path class="st0" d="M38.1-3.3L-226,90.9l40.3,349.2L38.1,564l223.8-124l40.3-349.2L38.1-3.3z M141.1,429.6l-33.2-82.8H-32.2
		l-33.2,82.8h-61.5l165-370.2l164.5,370.2L141.1,429.6L141.1,429.6z"/>
	<g>
		<polygon class="st0" points="38.1,295.7 38.1,179.7 -10.1,295.7 		"/>
		<polygon class="st0" points="86.3,295.7 38.1,179.7 38.1,295.7 		"/>
		<polygon class="st0" points="38.1,-3.3 38.1,59.4 202.6,429.6 141.1,429.6 107.9,346.7 38.1,346.7 38.1,564 261.9,440.1 
			302.2,90.9 		"/>
	</g>
</g>
</svg>
