<?xml version="1.0" encoding="utf-8"?>
<!-- Generator: Adobe Illustrator 19.0.0, SVG Export Plug-In . SVG Version: 6.00 Build 0)  -->
<svg version="1.1" id="Layer_1" xmlns="http://www.w3.org/2000/svg" xmlns:xlink="http://www.w3.org/1999/xlink" x="0px" y="0px"
	 viewBox="-79 -120 800 800" style="enable-background:new -79 -120 800 800;" xml:space="preserve">
<style type="text/css">
	.st0{fill:#03203F;}
</style>
<g>
	<path class="st0" d="M187.2,234.9c-8.9,0-15.5,1.7-19.8,5.3s-6.5,8.7-6.5,15.3c0,6.3,1.6,10.9,4.9,14.1c3.2,3.4,7.8,4.9,14,4.9
		c4.4,0,8.9-0.8,13.7-2.4s9.1-4.5,12.7-8.5c2.1-2.5,3.8-5.3,4.5-8.5s1.3-7,1.3-11.6V238c-4.1-1-8.1-1.7-12.3-2.3
		S191.3,234.9,187.2,234.9z"/>
	<path class="st0" d="M321-120C100.1-120-79,59.1-79,280s179.1,400,400,400s400-179.1,400-400S541.9-120,321-120z M416.8,270.5
		c0-2.8,1.1-4.1,3-4.1c0.8,0,1.6,0.2,2.4,0.4c0.8,0.2,2,0.8,3.4,1.3c4.5,2,9.5,3.6,14.6,4.7c5.3,1.1,10.5,1.6,15.9,1.6
		c8.4,0,14.9-1.5,19.5-4.4c4.4-2.7,7-7.5,7-12.7c0.1-3.4-1.2-6.8-3.6-9.3s-7-4.8-13.4-7l-19.3-6c-9.7-3-16.9-7.6-21.3-13.5
		c-4.3-5.5-6.6-12.3-6.6-19.3c0-5.5,1.2-10.5,3.6-14.8c2.4-4.2,5.5-8,9.6-10.9c4-3,8.5-5.3,13.8-7c5.3-1.6,10.9-2.3,16.8-2.3
		c2.9,0,6,0.2,8.9,0.5c3,0.4,5.9,0.9,8.7,1.5c2.7,0.7,5.2,1.3,7.6,2.1s4.3,1.6,5.6,2.4c1.6,0.8,3,2,4,3.4c0.9,1.3,1.3,2.8,1.2,4.4
		v6.3c0,2.8-1.1,4.3-3,4.3c-1.8-0.2-3.5-0.8-5.1-1.6c-8-3.5-16.7-5.3-25.5-5.2c-7.6,0-13.6,1.2-17.7,3.8c-4.1,2.5-6.3,6.4-6.3,11.8
		c0,3.8,1.3,7,4,9.5s7.6,5.1,14.6,7.3l18.9,5.9c9.5,3,16.5,7.3,20.6,12.8s6.1,11.7,6.1,18.6c0,5.7-1.2,10.9-3.4,15.5
		c-2.4,4.5-5.6,8.5-9.7,11.7c-4.1,3.4-9.1,5.7-14.8,7.4c-6.2,1.9-12.4,2.8-19.2,2.8l0,0l0,0l0,0c-7,0-13.8-0.8-20.5-2.4
		c-6.6-1.6-11.8-3.4-15.3-5.3c-2.1-1.2-3.6-2.5-4.1-3.7s-0.8-2.4-0.8-3.8v-6.7H416.8z M249.4,170.9h13c2.5,0,4.2,0.4,5.2,1.3
		c1.1,0.8,1.9,2.7,2.7,5.2l22.3,88l20.8-88c0.7-2.7,1.5-4.4,2.5-5.2c1.6-1,3.4-1.5,5.3-1.3h10.7c2.5,0,4.3,0.4,5.3,1.3
		c1,0.8,2,2.7,2.5,5.2l21,89.1l23-89.1c0.8-2.7,1.7-4.4,2.7-5.2c1.6-1,3.4-1.5,5.2-1.3H404c2.1,0,3.4,1.1,3.4,3.4
		c0,0.7-0.2,1.3-0.3,2.1c-0.2,1.2-0.5,2.3-0.9,3.4l-32,102.8c-0.8,2.7-1.7,4.4-2.8,5.2c-1.5,0.9-3.3,1.4-5.1,1.3h-11.5
		c-2.5,0-4.2-0.4-5.3-1.3c-1-0.9-2-2.7-2.5-5.3l-20.6-85.8l-20.5,85.7c-0.7,2.7-1.5,4.4-2.5,5.3c-1.1,0.9-3,1.3-5.3,1.3l-11.5-0.1
		c-2.4,0-4-0.4-5.1-1.3c-1.1-0.8-2-2.7-2.8-5.2l-31.3-102.8c-0.6-1.7-1-3.5-1.2-5.3C246.2,172.2,247.3,170.9,249.4,170.9z
		 M205.5,192.1c-4.2-4.1-11.4-6.1-21.6-6.1c-4.7,0-9.5,0.5-14.4,1.7s-9.7,2.7-14.4,4.5c-1.5,0.7-3,1.3-4.7,1.7
		c-0.7,0.2-1.4,0.3-2.1,0.4c-1.9,0-2.8-1.3-2.8-4.1v-6.5c0-2.1,0.2-3.7,0.9-4.7c1-1.2,2.3-2.2,3.8-2.8c4.7-2.4,10.2-4.4,16.7-6
		c6.8-1.7,13.8-2.6,20.8-2.5c15.9,0,27.4,3.6,34.8,10.8c7.3,7.2,11,18,11,32.7v43.1l0.2-0.1l0,0c0,4.9,0.5,8.9,1.5,11.8
		c1.1,3,2.4,6.2,4.3,9.6c0.7,1,0.9,2.1,0.9,3c0,1.3-0.8,2.7-2.5,4l-8.4,5.5c-1,0.7-2.2,1.2-3.4,1.2c-1.3,0-2.7-0.7-4-1.9
		c-1.8-2-3.4-4-4.8-6.3c-1.5-2.6-2.9-5.2-4.1-7.8c-10.4,12.3-23.4,18.4-39.1,18.4c-11.2,0-20.1-3.2-26.6-9.5
		c-6.5-6.4-9.8-14.9-9.8-25.5c0-11.3,4-20.5,12.1-27.4c8.1-7,18.9-10.4,32.6-10.4c4.5,0,9.2,0.4,14.1,1.1c4.9,0.7,10,1.7,15.3,3
		v-9.7C211.8,203.3,209.7,196.2,205.5,192.1z M482.6,357.1c-43.8,32.3-107.3,49.5-162,49.5c-76.6,0-145.7-28.4-197.8-75.5
		c-4.1-3.8-0.4-8.8,4.5-5.9c56.4,32.7,126,52.6,198,52.6c48.6,0,101.9-10.1,151-30.9C483.6,343.7,489.8,351.8,482.6,357.1z
		 M494.8,388.8c-3.6,3-7,1.5-5.5-2.5c5.3-13.2,17.2-42.9,11.6-49.9l0,0c-5.6-7.2-37-3.4-51.3-1.7c-4.2,0.5-4.9-3.2-1-6
		c25-17.6,66.1-12.5,70.9-6.6C524.3,328,518.2,369.1,494.8,388.8z"/>
</g>
</svg>
