<?xml version="1.0" encoding="utf-8"?>
<!-- Generator: Adobe Illustrator 19.0.0, SVG Export Plug-In . SVG Version: 6.00 Build 0)  -->
<svg version="1.1" id="Layer_1" xmlns="http://www.w3.org/2000/svg" xmlns:xlink="http://www.w3.org/1999/xlink" x="0px" y="0px"
	 viewBox="-79 -120 800 800" style="enable-background:new -79 -120 800 800;" xml:space="preserve">
<style type="text/css">
	.st0{fill:#03203F;}
</style>
<title>file_type_azure</title>
<g>
	<path class="st0" d="M295.5,529.8c89.2-18.1,162.9-33.2,163.8-33.4l1.6-0.4l-84.3-115.4c-46.4-63.5-84.3-115.6-84.3-115.9
		c0-0.3,87-276.4,87.5-277.4c0.2-0.3,59.4,117.4,143.5,285.3l144.4,288l1.1,2.2H401.1H133.3L295.5,529.8z"/>
	<path class="st0" d="M-25.9,494.7c0-0.2,39.7-79.5,88.2-176.3l88.2-176L253.5,43c56.6-54.6,103-99.4,103.2-99.5
		c-0.4,1.7-0.9,3.3-1.7,4.8L243.3,224L133.5,494.7H53.8C10,495-25.9,494.8-25.9,494.7z"/>
</g>
</svg>
