<?xml version="1.0" encoding="utf-8"?>
<!-- Generator: Adobe Illustrator 19.0.0, SVG Export Plug-In . SVG Version: 6.00 Build 0)  -->
<svg version="1.1" id="Layer_1" xmlns="http://www.w3.org/2000/svg" xmlns:xlink="http://www.w3.org/1999/xlink" x="0px" y="0px"
	 viewBox="-340 121 278.2 319" style="enable-background:new -340 121 278.2 319;" xml:space="preserve">
<style type="text/css">
	.st0{fill:#03203F;}
</style>
<g>
	<path class="st0" d="M-63.1,201.1L-255,312.5c11.1,18.1,31.2,30.3,53.9,30.3c23.5,0,44.1-12.9,55-32l33.3,19.6
		c-17.6,30.5-50.6,51.1-88.3,51.1c-37.1,0-69.6-19.9-87.4-49.6l-49.3,28.6c-0.1-0.2-0.2-0.3-0.3-0.5l-0.4,0.3
		c1.3,2.1,3.1,3.9,4.9,4.9l124.4,72c2.1,1.3,4.9,1.8,8,1.8s5.9-0.8,8-1.8l123.9-72c4.4-2.6,7.5-9,7.5-13.9V207.6
		C-61.9,205.5-62.1,203.2-63.1,201.1z M-68.5,274.9H-77l-2.3,11.1h10.8v12.1h-13.2l-3.1,15.5h-12.6l3.1-15.5h-9.8l-3.1,15.5h-12.4
		l3.1-15.5h-6.2V286h8.5v0.3l2.3-11.1h-10.8V263h13.2l3.1-16h12.6l-3.1,15.7h9.8l3.1-15.7h12.4l-3.1,15.7h6.2L-68.5,274.9
		L-68.5,274.9z"/>
	<polygon class="st0" points="-103.3,286.2 -93.5,286.2 -91.2,275.1 -101,275.1 	"/>
	<path class="st0" d="M-302.8,280.6c0-56.3,45.7-101.9,101.9-101.9c37.8,0,70.8,20.8,88.4,51.3c14.5-8.4,49.2-28.6,49.2-28.6
		c0.1,0.3,0.3,0.5,0.4,0.8l0.9-0.5c-1.5-3.1-3.9-5.4-6.2-7l-124.6-71.8c-2.1-1.3-4.9-1.8-8-1.8s-5.9,0.8-8,1.8l-123.9,72
		c-4.4,2.6-7.5,9-7.5,13.9v143.8c0,2.7,0.5,5.8,2.2,8.5c0.2-0.1,34.7-20.2,49.3-28.7C-297.6,317.2-302.8,299.5-302.8,280.6z"/>
	<path class="st0" d="M-200.9,217.3c-34.8,0-63.2,28.4-63.2,63.2c0,11.8,3.3,22.9,8.9,32.3c46.1-26.8,63.3-36.8,109.2-63.5
		C-156.8,230.2-177.4,217.3-200.9,217.3z"/>
	<path class="st0" d="M-288.3,333c-0.1-0.2-0.2-0.4-0.3-0.6c-14.6,8.5-49.2,28.6-49.3,28.7c0.1,0.2,0.2,0.3,0.3,0.5L-288.3,333z"/>
	<path class="st0" d="M-112.5,229.9c0.1,0.1,0.1,0.2,0.2,0.3l-33.6,19.4c0-0.1-0.1-0.1-0.1-0.2c-45.9,26.7-63.1,36.7-109.2,63.5
		c0.1,0.2,0.2,0.4,0.4,0.6l191.9-111.4c-0.1-0.3-0.2-0.5-0.4-0.8C-63.3,201.3-98,221.5-112.5,229.9z"/>
</g>
</svg>
