<?xml version="1.0" encoding="utf-8"?>
<!-- Generator: Adobe Illustrator 19.0.0, SVG Export Plug-In . SVG Version: 6.00 Build 0)  -->
<svg version="1.1" id="Layer_1" xmlns="http://www.w3.org/2000/svg" xmlns:xlink="http://www.w3.org/1999/xlink" x="0px" y="0px"
	 viewBox="-415 217 128 128" style="enable-background:new -415 217 128 128;" xml:space="preserve">
<style type="text/css">
	.st0{fill:#03203F;}
</style>
<path class="st0" d="M-355.6,217h20.9v96.9c-10.7,2-18.6,2.9-27.2,2.9c-25.6,0-38.9-11.6-38.9-33.7c0-21.3,14.1-35.2,36-35.2
	c3.4,0,6,0.3,9.1,1.1V217z M-355.6,265.8c-2.4-0.8-4.5-1.1-7.1-1.1c-10.6,0-16.7,6.5-16.7,17.9c0,11.1,5.8,17.3,16.6,17.3
	c2.3,0,4.2-0.1,7.2-0.5V265.8z"/>
<path class="st0" d="M-301.3,249.3v48.5c0,16.7-1.2,24.7-4.9,31.7c-3.4,6.7-7.9,10.9-17.1,15.5l-19.4-9.2c9.2-4.4,13.7-8.2,16.6-14
	c3-6,3.9-12.9,3.9-31.1v-41.3H-301.3z M-322.3,217.1h20.9v21.5h-20.9V217.1z"/>
</svg>
