<?xml version="1.0" encoding="utf-8"?>
<!-- Generator: Adobe Illustrator 19.0.0, SVG Export Plug-In . SVG Version: 6.00 Build 0)  -->
<svg version="1.1" id="Layer_1" xmlns="http://www.w3.org/2000/svg" xmlns:xlink="http://www.w3.org/1999/xlink" x="0px" y="0px"
	 viewBox="-79 -120 800 800" style="enable-background:new -79 -120 800 800;" xml:space="preserve">
<style type="text/css">
	.st0{fill:#03203F;}
</style>
<title>docker</title>
<path class="st0" d="M704.5,210.6c-15.3-10.1-34.2-16.1-54.4-16.1c-2.3,0-4.6,0.1-6.9,0.2h0.3c-11.2,0-22,1-32.7,2.9l1.2-0.2
	c-5.9-33.9-25.6-62.4-53-79.8l-0.5-0.3l-10.7-6.2l-7,10.2c-8.4,12.8-15,27.7-18.9,43.6l-0.2,1c-2.2,8.1-3.5,17.4-3.5,27
	c0,20.8,6,40.1,16.4,56.5l-0.3-0.4c-15.9,7.5-34.5,12.2-54.1,13.1h-0.3H-13.4c-12.9,0-23.4,10.5-23.4,23.3l0,0c0,1.4,0,3.1,0,4.8
	c0,43.8,7.9,85.7,22.4,124.4l-0.8-2.4c13.9,40.8,40.3,74.4,74.5,97l0.7,0.4c43.6,22.6,95.2,35.8,149.9,35.8c5.2,0,10.3-0.1,15.4-0.3
	h-0.7c0.4,0,1,0,1.5,0c31.8,0,62.9-3,93-8.8l-3.1,0.5c44.9-8.4,84.9-23.5,121.1-44.3l-1.8,1c31.4-18.4,58.3-40.5,81.1-66.3l0.3-0.4
	c33.1-39,60.1-84.5,78.6-134.1l1-3.1h6.9c1.4,0.1,3,0.1,4.6,0.1c30.6,0,58.5-12,79.1-31.6h-0.1c9.4-8.9,16.9-19.8,21.8-32l0.2-0.6
	l3-9L704.5,210.6z M32.2,247.6h66.1c3.2,0,5.8-2.6,5.8-5.8l0,0l0,0v-58.9l0,0c0-3.2-2.6-5.7-5.8-5.8H32.2c-3.2,0-5.8,2.6-5.8,5.8
	l0,0v58.9l0,0C26.5,245.1,29.1,247.6,32.2,247.6L32.2,247.6L32.2,247.6L32.2,247.6z M123.3,247.6h66.1c3.2,0,5.8-2.6,5.8-5.8l0,0
	l0,0v-58.9l0,0c0-3.2-2.6-5.7-5.8-5.8h-66.1l0,0c-3.2,0-5.8,2.6-5.8,5.8l0,0l0,0v58.9C117.6,245.1,120.1,247.6,123.3,247.6
	L123.3,247.6L123.3,247.6z M215.8,247.6H282c3.2,0,5.7-2.6,5.7-5.8l0,0l0,0v-58.9l0,0c0-3.2-2.6-5.7-5.7-5.8h-66.2
	c-3.2,0-5.7,2.6-5.7,5.8l0,0v58.9C210.1,245,212.6,247.6,215.8,247.6L215.8,247.6L215.8,247.6z M307.2,247.6h66.1l0,0
	c3.2,0,5.8-2.6,5.8-5.8v-58.9l0,0c0-3.2-2.6-5.8-5.8-5.8l0,0h-66.1c-3.2,0-5.8,2.6-5.8,5.8l0,0v58.9l0,0
	C301.4,245.1,304,247.6,307.2,247.6L307.2,247.6L307.2,247.6z M123.3,162.9h66.1c3.2,0,5.8-2.6,5.8-5.8l0,0l0,0V98.2l0,0
	c0-3.2-2.6-5.8-5.8-5.8h-66.1c-3.2,0-5.8,2.6-5.8,5.8v58.9C117.6,160.3,120.2,162.9,123.3,162.9L123.3,162.9z M215.8,162.9H282
	c3.2,0,5.7-2.6,5.7-5.8l0,0V98.2l0,0c0-3.2-2.6-5.8-5.8-5.8h-66.1c-3.2,0-5.8,2.6-5.8,5.8l0,0l0,0v58.9
	C210.1,160.3,212.6,162.9,215.8,162.9L215.8,162.9L215.8,162.9z M307.2,162.9h66.1c3.2,0,5.8-2.6,5.8-5.8V98.2
	c0-3.2-2.6-5.8-5.8-5.8h-66.1c-3.2,0-5.8,2.6-5.8,5.8l0,0l0,0v58.9C301.4,160.3,304,162.9,307.2,162.9L307.2,162.9z M307.2,78.2
	h66.1l0,0c3.2,0,5.8-2.6,5.8-5.8l0,0l0,0V13.5c0-3.2-2.6-5.8-5.8-5.8l0,0h-66.1c-3.2,0-5.8,2.6-5.8,5.8l0,0v58.9l0,0
	C301.4,75.6,304,78.2,307.2,78.2L307.2,78.2L307.2,78.2L307.2,78.2z M399.4,247.6h66.1l0,0c3.2,0,5.8-2.6,5.8-5.8v-58.9l0,0
	c0-3.2-2.6-5.8-5.8-5.8l0,0h-66.1l0,0c-3.2,0-5.8,2.6-5.8,5.8v58.9C393.6,245,396.2,247.6,399.4,247.6L399.4,247.6L399.4,247.6z"/>
</svg>
