<?xml version="1.0" encoding="utf-8"?>
<!-- Generator: Adobe Illustrator 19.0.0, SVG Export Plug-In . SVG Version: 6.00 Build 0)  -->
<svg version="1.1" id="Layer_1" xmlns="http://www.w3.org/2000/svg" xmlns:xlink="http://www.w3.org/1999/xlink" x="0px" y="0px"
	 viewBox="-415 217 128 128" style="enable-background:new -415 217 128 128;" xml:space="preserve">
<style type="text/css">
	.st0{fill:#03203F;}
</style>
<path class="st0" d="M-288.3,315.4c-4.6,1.2-7.4,0-9.9-3.8c-5.7-8.5-12-16.6-18-24.9c-0.8-1.1-1.6-2.1-2.6-3.5
	c-7.2,9.7-14.3,18.9-21,28.4c-2.4,3.4-4.9,4.9-9.4,3.7l26.9-36.1l-25.1-32.6c4.3-0.8,7.3-0.4,9.9,3.5c5.8,8.5,12.3,16.6,18.7,25.2
	c6.4-8.5,12.8-16.7,18.8-25.1c2.4-3.4,5-4.7,9.3-3.5c-3.3,4.3-6.5,8.6-9.7,12.9c-4.4,5.7-8.6,11.5-13.2,17.1c-1.6,2-1.4,3.3,0.1,5.2
	C-305.1,293-296.8,304.1-288.3,315.4z M-413.7,278.7c0.7-3.6,1.2-7.3,2.2-10.8c6-21.4,30.6-30.3,47.5-17.1
	c9.9,7.8,12.4,18.8,11.9,31.1h-55.8c-0.8,22.2,15.1,35.6,35.5,28.8c7.1-2.4,11.4-8,13.5-15c1.1-3.5,2.8-4.1,6.1-3.1
	c-1.7,8.8-5.5,16.1-13.5,20.7c-12,6.9-29.1,4.6-38.1-4.9c-5.3-5.6-7.6-12.6-8.6-20.1c-0.1-1.2-0.5-2.4-0.7-3.6
	C-413.7,282.8-413.7,280.8-413.7,278.7z M-407.8,277.3h50.4c-0.3-16.1-10.3-27.5-24-27.6C-396.4,249.6-407.1,260.7-407.8,277.3z"/>
</svg>
