<?xml version="1.0" encoding="utf-8"?>
<!-- Generator: Adobe Illustrator 19.0.0, SVG Export Plug-In . SVG Version: 6.00 Build 0)  -->
<svg version="1.1" id="Layer_1" xmlns="http://www.w3.org/2000/svg" xmlns:xlink="http://www.w3.org/1999/xlink" x="0px" y="0px"
	 viewBox="-229 31 500 500" style="enable-background:new -229 31 500 500;" xml:space="preserve">
<style type="text/css">
	.st0{fill:#03203F;}
</style>
<path class="st0" d="M223.7,73.9c-1.9-2.1-4.6-3.2-7.4-3.2h-390.6c-0.3,0-0.6,0-0.9,0s-0.7,0-1,0c-5.2,0.9-8.7,5.7-8.1,10.9
	L-149,476c0.5,4,3.3,7.3,7.2,8.4l160,45.9c1.8,0.5,3.8,0.5,5.6,0l160-45.9c3.9-1.1,6.7-4.4,7.2-8.4l35.3-394.4
	C226.6,78.8,225.6,76,223.7,73.9z M130.4,199.7H-48.7c-2.8,0-5.5,1.2-7.4,3.2c-1.9,2.1-2.9,4.9-2.6,7.7l0,0.3l0,0l0.3,3.3l4.4,47.3
	c0.1,0.9,0.3,1.9,0.7,2.7l0,0.4l0.2,0.1c1.5,3.2,4.6,5.5,8.4,5.9l0.5,0.3h168.4l-11.9,132.5L21,431l-91.3-27.5l-3.8-43.5h28.8
	l0.1,0.5l1.2,13.9c0.1,1.5,0.6,2.9,1.3,4.2l0.1,0.4l0.2,0.1c1.4,2.2,3.6,3.9,6.3,4.5l50.4,10.5l5.2,1.4l0.8-0.2
	c1.1,0.1,2.2,0.1,3.3-0.1l35.3-7.5l19.4-3.8l0.4-0.4c3.2-0.9,5.7-3.2,6.8-6.3l0.1-0.1l0-0.4c0.2-0.7,0.3-1.4,0.4-2.1l5.1-55.7
	l0.8-8.4l0,0l0-0.3c0.2-2.8-0.8-5.5-2.7-7.5c-1.9-2-4.5-3.2-7.3-3.2H-79.6l-11.3-127.7h223.7L130.4,199.7z"/>
</svg>
