<?xml version="1.0" encoding="utf-8"?>
<!-- Generator: Adobe Illustrator 19.0.0, SVG Export Plug-In . SVG Version: 6.00 Build 0)  -->
<svg version="1.1" id="Layer_1" xmlns="http://www.w3.org/2000/svg" xmlns:xlink="http://www.w3.org/1999/xlink" x="0px" y="0px"
	 viewBox="-163 -36 632 632" style="enable-background:new -163 -36 632 632;" xml:space="preserve">
<style type="text/css">
	.st0{fill:#03203F;}
</style>
<path class="st0" d="M-163-36v632h632V-36H-163z M170.1,505.3c-9.3,18.9-27.1,31.4-47.7,37.4c-31.7,7.3-61.9,3.1-84.5-10.4
	c-15.1-9.2-26.9-23.5-34.8-39.9L51.2,463c0.4,0.2,1.7,2.5,3.4,5.4c6.1,10.3,11.4,17.5,21.8,22.6c10.2,3.5,32.6,5.7,41.3-12.3
	c5.3-9.1,3.6-38.9,3.6-71.4l0.2-152.8h59.1c0,54.4,0.3,108.6,0,162.7C180.7,450.4,183.6,480.5,170.1,505.3z M415.4,488.6
	c-20.5,70.3-135.1,72.6-180.9,26.1c-9.7-10.9-15.7-16.6-21.5-29.3c24.3-14,24.3-14,48-27.7c12.9,19.8,24.8,30.6,46.1,35.1
	c29,3.5,58.2-6.4,51.7-37.2c-6.7-25.2-59.4-31.3-95.3-58.2c-36.4-24.5-44.9-83.9-15-117.8c10-12.6,27-21.9,44.8-26.4l18.6-2.4
	c35.7-0.7,58.1,8.7,74.5,27c4.6,4.6,8.3,9.6,15.3,20.4c-19,12.1-19,12-46.3,29.7c-5.8-12.6-15.5-20.4-25.7-23.8
	c-15.9-4.8-35.9,0.4-40,17.2c-1.4,5.2-1.1,10,1.1,18.5c6.4,14.7,28,21,47.3,29.9c55.7,22.6,74.5,46.8,79.1,75.6
	C421.7,470.1,416.2,486.2,415.4,488.6z"/>
</svg>
