<?xml version="1.0" encoding="utf-8"?>
<!-- Generator: Adobe Illustrator 19.0.0, SVG Export Plug-In . SVG Version: 6.00 Build 0)  -->
<svg version="1.1" id="Layer_1" xmlns="http://www.w3.org/2000/svg" xmlns:xlink="http://www.w3.org/1999/xlink" x="0px" y="0px"
	 viewBox="-609.2 30.8 505.3 500.7" style="enable-background:new -609.2 30.8 505.3 500.7;" xml:space="preserve">
<style type="text/css">
	.st0{fill:#03203F;}
</style>
<g>
	<path class="st0" d="M-115.6,402.4l-2.3,5.9c-38.5,75.1-106.8,121.1-204.3,123.1c-45.5,0.9-89-10.7-117.3-23.4
		c-61.2-27.5-112.6-78.5-140.7-132.9c-40.3-78.1-47.6-186.7,36.2-267.8c1.3,0-10.2,17.6-8.9,17.6l-2.3,7.5
		C-615.5,321.5-429.4,483.5-248.6,465C-205.1,460.5-149.6,436.7-115.6,402.4L-115.6,402.4L-115.6,402.4z M-115.6,402.4L-115.6,402.4
		L-115.6,402.4L-115.6,402.4z"/>
	<path class="st0" d="M-225.1,324.2c45.5,0.3,93-21,121.2-50.8c-24.6,62.5-95.9,102.7-191.6,89.9c-80.1-10.7-156.3-91.3-164.2-172
		c-5.8-58.8,14.7-93.8,48.5-136.4c-11.7,22.2-16.1,39.4-17.2,50.3C-441.2,232.4-326.8,323.6-225.1,324.2L-225.1,324.2L-225.1,324.2z
		 M-225.1,324.2L-225.1,324.2L-225.1,324.2L-225.1,324.2z"/>
	<path class="st0" d="M-108.5,166.4c-7.1,16.2-47.8,46.9-65.8,50.7c-71.2,15.2-116.8-18.6-140.7-57c-3.5-5.8-10.1-21.4-11.3-25.4
		c-9.3-31.5-5-79.2,22.6-103.8c-8.3,23.4-9.5,50.7-5.1,68.4c2.7,10.7,10.7,29.4,18.8,41.2c14.7,21.4,24.1,26.6,43,38
		c8.5,5.1,17.7,9.2,21.6,10.4C-207.4,194-169.5,207.9-108.5,166.4L-108.5,166.4L-108.5,166.4z M-108.5,166.4L-108.5,166.4
		L-108.5,166.4L-108.5,166.4z"/>
</g>
</svg>
