<?xml version="1.0" encoding="utf-8"?>
<!-- Generator: Adobe Illustrator 19.0.0, SVG Export Plug-In . SVG Version: 6.00 Build 0)  -->
<svg version="1.1" id="Layer_1" xmlns="http://www.w3.org/2000/svg" xmlns:xlink="http://www.w3.org/1999/xlink" x="0px" y="0px"
	 viewBox="-415 217 128 128" style="enable-background:new -415 217 128 128;" xml:space="preserve">
<style type="text/css">
	.st0{fill:#03203F;}
</style>
<path class="st0" d="M-339.6,217.3c-0.9,0-1.8,0.2-2.6,0.5c1.7,1.1,2.6,2.6,3.1,4.3c0,0.2,0.1,0.4,0.1,0.6s0.1,0.4,0.1,0.6
	c0.1,2.9-0.8,3.3-1.4,5c-1,2.2-0.7,4.6,0.5,6.5c0.1,0.2,0.2,0.5,0.4,0.7c-1.3-8.4,5.7-9.6,7-12.2c0.1-2.3-1.8-3.8-3.3-4.9
	C-337.2,217.5-338.4,217.3-339.6,217.3z M-329.1,219.1c-0.1,0.8,0,0.6-0.1,1c0,0.3,0,0.6-0.1,0.9c-0.1,0.3-0.1,0.5-0.2,0.8
	c-0.1,0.3-0.2,0.5-0.3,0.8c-0.1,0.2-0.2,0.4-0.3,0.7c-0.1,0.1-0.2,0.3-0.3,0.4c-0.1,0.1-0.1,0.2-0.2,0.3c-0.2,0.2-0.3,0.5-0.5,0.7
	l-0.6,0.6c-0.2,0.2-0.4,0.4-0.6,0.5c-0.7,0.5-1.5,0.9-2.2,1.4c-0.2,0.2-0.5,0.3-0.7,0.5c-0.2,0.2-0.4,0.3-0.6,0.5l-0.6,0.6
	c-0.2,0.2-0.4,0.4-0.5,0.7c-0.2,0.2-0.3,0.5-0.5,0.7c-0.1,0.3-0.2,0.5-0.4,0.8c-0.1,0.3-0.2,0.5-0.3,0.8c-0.1,0.3-0.2,0.6-0.2,0.8
	c0,0.1,0,0.3-0.1,0.4c0,0.1,0,0.3-0.1,0.4v1.4c0,0.3,0,0.5,0.1,0.8c0,0.3,0.1,0.5,0.2,0.8c0.1,0.3,0.2,0.5,0.3,0.8
	c0.1,0.2,0.2,0.3,0.2,0.5l-7.6-2.9c-1.3-0.4-2.5-0.7-3.8-1c-0.7-0.2-1.4-0.3-2.1-0.5c-2-0.4-4-0.7-6-0.9h-0.2
	c-2-0.2-3.9-0.3-5.9-0.3c-1.5,0-2.9,0.1-4.3,0.2c-2,0.1-4,0.4-6,0.7l-1.5,0.3c-1,0.2-2,0.4-3,0.7c-0.5,0.1-1,0.3-1.5,0.4
	c-0.5,0.2-1,0.4-1.4,0.6c-0.4,0.2-0.7,0.3-1.1,0.5c-0.1,0-0.1,0-0.2,0.1c-0.3,0.2-0.6,0.3-0.9,0.5c-0.1,0-0.2,0.1-0.2,0.1
	c-0.4,0.2-0.7,0.4-1,0.5c-0.2,0.1-0.5,0.2-0.7,0.3c-0.1,0.1-0.2,0.1-0.3,0.2c-0.3,0.2-0.6,0.3-0.9,0.5s-0.6,0.3-0.8,0.5
	c-0.2,0.2-0.5,0.3-0.7,0.5c0,0-0.1,0-0.1,0.1c-0.2,0.1-0.4,0.3-0.6,0.5l-0.1,0.1c-0.2,0.1-0.3,0.3-0.5,0.4c-0.1,0-0.1,0.1-0.2,0.1
	c-0.2,0.1-0.3,0.3-0.5,0.4c0,0.1-0.1,0.1-0.1,0.1l-0.6,0.6l-0.1,0.1l-0.6,0.6c0,0,0,0.1-0.1,0.1l-0.5,0.5c-0.1,0.1-0.2,0.1-0.2,0.2
	l-0.6,0.6c0,0.1-0.1,0.1-0.1,0.2l-0.8,0.8l-0.1,0.1c-0.5,0.6-1.1,1.1-1.7,1.6c-0.6,0.5-1.2,1-1.9,1.5c-0.7,0.5-1.3,0.9-2,1.3
	c-0.7,0.4-1.4,0.7-2.1,1c-0.7,0.3-1.4,0.6-2.1,0.8c-1.4,0.3-2.8,0.9-4,1c0-0.5-0.3-0.4-0.6-0.4c-0.3,0.1-0.6,0.1-0.8,0.2
	c-0.3,0.1-0.5,0.2-0.8,0.3c-0.3,0.1-0.5,0.2-0.8,0.4c-0.2,0.2-0.5,0.3-0.7,0.5c-0.2,0.2-0.5,0.4-0.7,0.6c-0.2,0.2-0.5,0.4-0.7,0.6
	c-0.2,0.2-0.4,0.4-0.6,0.7c-0.2,0.3-0.4,0.5-0.5,0.8c-0.2,0.2-0.3,0.5-0.5,0.8c-0.1,0.3-0.3,0.6-0.4,0.9l-0.3,0.9
	c-0.1,0.3-0.1,0.5-0.2,0.8v0.1c-0.1,0.3-0.1,0.7-0.1,0.9c0.1-0.1,0.1,0.1,0.1,0.3v0.4c0,0.2,0.1,0.4,0.1,0.6
	c0.1,0.2,0.1,0.4,0.2,0.6c0.1,0.2,0.2,0.4,0.4,0.6c0.1,0.2,0.3,0.4,0.4,0.6c0.2,0.2,0.4,0.4,0.6,0.5c0.2,0.2,0.4,0.4,0.6,0.5
	c0.8,0.7,1,0.9,2,1.5c0.2,0.1,0.3,0.2,0.5,0.3h0.1v0.2c0,0.3,0.1,0.5,0.2,0.8s0.2,0.6,0.3,0.8l0.3,0.6c0,0.1,0.1,0.1,0.1,0.2
	c0.1,0.3,0.3,0.5,0.4,0.7c0.2,0.2,0.3,0.5,0.5,0.7l0.6,0.6l0.6,0.6h0.1c0.2,0.2,0.4,0.3,0.6,0.5c0.2,0.2,0.5,0.3,0.7,0.4
	c0.2,0.1,0.5,0.3,0.8,0.4c0.2,0.1,0.4,0.2,0.7,0.2c0,0,0.1,0,0.1,0.1c0.1,0,0.3,0.1,0.4,0.1c-0.1,1.8-0.1,3.5,0.1,4.1
	c0.3,0.7,1.8-1.4,3.2-3.7c-0.2,2.3-0.3,5,0,5.8c0.4,0.8,2.3-1.8,4.1-4.6c23.4-5.4,44.8,10.8,47.1,33.7c-0.4-3.6-4.8-5.6-6.9-5.1
	c-1,2.4-2.7,5.6-5.4,7.5c0.2-2.2,0.1-4.4-0.3-6.6c-0.7,3-2.1,5.9-4.1,8.3c-3.1,0.2-6.3-1.3-7.9-3.6c-0.1-0.1-0.2-0.3-0.3-0.4
	c-0.1-0.2-0.2-0.5-0.3-0.7s-0.2-0.5-0.2-0.7v-0.7v-0.5c0-0.2,0.1-0.5,0.2-0.7c0.1-0.2,0.1-0.5,0.2-0.7c0.1-0.2,0.2-0.5,0.4-0.7
	c0.6-1.6,0.6-2.9-0.5-3.6l-0.6-0.3c-0.1,0-0.3-0.1-0.4-0.1s-0.2-0.1-0.3-0.1c-0.2-0.1-0.5-0.1-0.7-0.2c-0.2-0.1-0.5-0.1-0.7-0.1
	s-0.5-0.1-0.7-0.1h-0.5c-0.3,0-0.5,0-0.7,0.1c-0.2,0-0.5,0.1-0.7,0.1c-0.2,0.1-0.5,0.1-0.7,0.2c-0.2,0.1-0.4,0.2-0.7,0.3l-0.6,0.3
	c-7.7,5-3.1,16.8,2.1,20.2c-2,0.4-4,0.8-4.6,1.2l-0.1,0.1c1.4,0.9,2.9,1.6,4.5,2.2c2.1,0.7,4.4,1.3,5.4,1.6c2.7,0.6,5.5,0.8,8.3,0.6
	c14.6-1,26.6-12.2,28.8-26.8c0.1,0.3,0.1,0.6,0.2,0.9c0.1,0.6,0.2,1.2,0.3,1.9c0.1,0.3,0.1,0.6,0.1,0.9v0.1c0,0.3,0.1,0.6,0.1,0.9
	c0,0.4,0.1,0.7,0.1,1.1v4.2c0,0.3-0.1,0.5-0.1,0.8v0.3c0,0.3-0.1,0.6-0.1,1c-0.1,0.3-0.1,0.6-0.2,0.9v0.1c-0.1,0.3-0.1,0.6-0.2,0.9
	v0.1c-0.1,0.3-0.1,0.6-0.2,0.9v0.1l-0.3,0.9v0.1c-0.1,0.3-0.2,0.7-0.3,1c-0.1,0.3-0.2,0.6-0.4,1c-0.1,0.3-0.2,0.7-0.4,1
	c-0.1,0.3-0.3,0.6-0.4,1c-0.1,0.3-0.3,0.6-0.4,0.9c0,0.1-0.1,0.2-0.1,0.2s0,0.1-0.1,0.1c-2.1,4.3-5.3,8.1-9.3,11.1
	c-0.3,0.2-0.5,0.4-0.8,0.6c-0.1,0.1-0.2,0.1-0.2,0.2c-0.2,0.2-0.5,0.3-0.7,0.5l0.1,0.2c0.5-0.1,0.9-0.1,1.4-0.2
	c0.9-0.1,1.7-0.3,2.6-0.5c0.2,0,0.5-0.1,0.7-0.2c0.2,0,0.3-0.1,0.5-0.1c0.2,0,0.5-0.1,0.7-0.1c0.2-0.1,0.4-0.1,0.6-0.2
	c3.3-0.8,6.5-1.9,9.6-3.2c-5.3,7.2-12.3,13-20.5,16.8c3.8-0.3,7.6-0.9,11.3-2c13.3-3.9,24.5-12.9,31.2-25
	c-1.4,7.6-4.4,14.9-8.9,21.3c3.2-2.1,6.1-4.6,8.8-7.3c7.4-7.7,12.3-17.6,13.9-28.1c1.1,5.2,1.5,10.6,1,15.9
	c23.9-33.3,2-67.8-7.2-76.9c0-0.1-0.1-0.1-0.1-0.2l0,0c0,0.4,0,0.8-0.1,1.2c-0.1,0.8-0.2,1.5-0.3,2.2c-0.2,0.7-0.4,1.5-0.6,2.2
	c-0.2,0.7-0.5,1.4-0.8,2.1c-0.3,0.7-0.6,1.4-1,2c-0.4,0.6-0.8,1.3-1.2,1.9s-0.9,1.2-1.4,1.8c-0.5,0.6-1,1.1-1.6,1.7
	c-0.3,0.3-0.6,0.6-1,0.8c-0.3,0.2-0.5,0.4-0.8,0.7c-0.6,0.5-1.2,0.9-1.9,1.3c-0.6,0.4-1.3,0.8-2,1.1l-2.1,0.9
	c-0.7,0.3-1.4,0.5-2.1,0.7c-0.7,0.2-1.5,0.4-2.2,0.5c-0.8,0.1-1.5,0.2-2.2,0.3c-0.5,0-1.1,0.1-1.6,0.1c-0.8,0-1.5-0.1-2.2-0.1
	c-0.8-0.1-1.5-0.2-2.2-0.3c-0.8-0.1-1.5-0.3-2.2-0.6c0.7-0.1,1.5-0.1,2.2-0.3c0.8-0.1,1.5-0.3,2.2-0.5c0.7-0.2,1.5-0.4,2.1-0.7
	l2.1-0.9c0.7-0.3,1.3-0.7,2-1.1c0.6-0.4,1.3-0.9,1.9-1.3c0.6-0.5,1.2-1,1.7-1.5c0.6-0.5,1.1-1.1,1.6-1.6c0.5-0.6,1-1.2,1.4-1.8
	c0.1-0.1,0.1-0.2,0.2-0.3c0.3-0.5,0.7-1.1,1-1.6c0.4-0.7,0.7-1.3,1-2s0.6-1.4,0.8-2.1l0.6-2.1c0.1-0.8,0.3-1.5,0.3-2.2
	c0.1-0.8,0.1-1.5,0.1-2.2c0-0.5,0-1.1-0.1-1.6c-0.1-0.8-0.2-1.5-0.3-2.2c-0.1-0.8-0.3-1.5-0.5-2.2c-0.2-0.7-0.5-1.4-0.7-2.1
	c-0.3-0.7-0.6-1.4-0.9-2c-0.4-0.7-0.7-1.3-1.1-2c-0.4-0.6-0.9-1.2-1.3-1.8c-0.5-0.6-1-1.1-1.5-1.7c-0.3-0.3-0.6-0.6-0.9-0.8
	c-1.5-1.2-3-2.2-4.6-3.2c-0.2-0.1-0.4-0.2-0.7-0.3C-327.1,219.8-328.1,219.5-329.1,219.1z"/>
</svg>
