<?xml version="1.0" encoding="utf-8"?>
<!-- Generator: Adobe Illustrator 19.0.0, SVG Export Plug-In . SVG Version: 6.00 Build 0)  -->
<svg version="1.1" id="Layer_1" xmlns="http://www.w3.org/2000/svg" xmlns:xlink="http://www.w3.org/1999/xlink" x="0px" y="0px"
	 viewBox="-522.2 171.7 216.5 216.5" style="enable-background:new -522.2 171.7 216.5 216.5;" xml:space="preserve">
<style type="text/css">
	.st0{fill:#03203F;}
</style>
<title>logo_NETcore</title>
<g>
	<path class="st0" d="M-379,323.6c-0.9-1.1-2.3-1.6-3.7-1.6c-1.5,0-2.9,0.6-3.9,1.7c-1.1,1.2-1.8,2.7-2,4.3l11,0
		C-377.6,326.4-378.1,324.8-379,323.6z"/>
	<path class="st0" d="M-414.9,324.1c-1.2-1.4-3-2.2-4.8-2.1c-1.9-0.1-3.7,0.7-4.9,2.1c-1.3,1.7-2,3.8-1.8,5.9
		c-0.1,2.1,0.5,4.1,1.8,5.7c1.2,1.4,3.1,2.2,4.9,2.1c1.8,0.1,3.6-0.6,4.8-2c1.2-1.7,1.8-3.7,1.7-5.8
		C-413.1,327.8-413.7,325.8-414.9,324.1z"/>
	<path class="st0" d="M-413.9,171.7c-59.8,0-108.3,48.5-108.3,108.3c0,59.8,48.5,108.3,108.3,108.3c59.8,0,108.3-48.5,108.3-108.3
		C-305.7,220.1-354.1,171.7-413.9,171.7z M-493.8,296.3c-0.9,0.9-2.1,1.4-3.4,1.4c-1.3,0-2.5-0.5-3.4-1.4c-0.9-0.9-1.4-2.1-1.4-3.4
		c0-1.3,0.5-2.5,1.4-3.4c0.9-0.9,2.1-1.5,3.4-1.5c1.3,0,2.5,0.5,3.4,1.5c0.9,0.9,1.4,2.1,1.4,3.4
		C-492.4,294.2-492.9,295.4-493.8,296.3z M-413.9,235.2h31.3v6.5h-23.9v20.5h22.3v6.5h-22.3v21.4h25.4l0,6.8h-32.8V235.2z
		 M-433.8,315.8c-2.1-1.1-4.4-1.7-6.8-1.7c-3-0.1-5.9,1.2-8,3.4c-2.1,2.4-3.2,5.5-3,8.7c-0.2,3,0.9,6,2.8,8.3
		c1.9,2.1,4.7,3.2,7.5,3.1c2.6,0.1,5.2-0.6,7.4-1.9l0,3.1c-2.4,1.2-5.1,1.8-7.8,1.7c-3.6,0.2-7.2-1.3-9.7-3.9
		c-2.5-2.8-3.8-6.4-3.7-10.2c-0.2-4.1,1.3-8.1,4.1-11c2.7-2.8,6.5-4.3,10.4-4.2c2.3-0.1,4.6,0.3,6.8,1.2V315.8z M-429.9,296.9h-8.9
		l-31.7-49.2c-0.8-1.2-1.4-2.5-2-3.9h-0.3c0.3,2.8,0.4,5.6,0.3,8.5v44.6h-7.2v-61.7h9.4l30.9,48.3c1.3,2,2.1,3.4,2.5,4.1h0.2
		c-0.4-3-0.5-6-0.4-9.1v-43.4h7.2V296.9z M-412.7,337.4c-1.9,2-4.6,3.2-7.3,3.1c-2.7,0.1-5.4-1-7.2-3c-1.9-2.1-2.8-4.8-2.7-7.5
		c-0.2-2.9,0.8-5.8,2.8-8c2-2,4.7-3,7.5-2.9c2.7-0.1,5.2,0.9,7.1,2.8c1.8,2.2,2.7,4.9,2.5,7.7C-409.8,332.5-410.8,335.3-412.7,337.4
		z M-394.1,323c-0.7-0.5-1.6-0.7-2.5-0.6c-1.4,0.1-2.7,0.8-3.4,2c-1,1.6-1.5,3.5-1.4,5.3V340h-3.4v-20.3h3.4v4.2
		c0.4-1.3,1.1-2.5,2.1-3.4c0.9-0.8,2-1.2,3.2-1.2c0.7,0,1.3,0.1,1.9,0.3V323z M-386.9,335.9c1.3,1.3,3,1.9,4.8,1.8
		c2.3,0,4.5-0.8,6.3-2.3v3c-2.1,1.4-4.6,2.1-7.1,1.9c-2.6,0.1-5-0.9-6.8-2.8c-1.8-2.2-2.6-5-2.5-7.8c-0.1-2.8,0.8-5.6,2.7-7.7
		c1.7-2,4.2-3.1,6.8-3c2.3-0.1,4.6,0.8,6.2,2.6c1.6,2.1,2.3,4.6,2.2,7.2l0,1.8h-14.3C-388.7,332.6-388.1,334.4-386.9,335.9z
		 M-350.7,241.7v55.2h-7.2v-55.2h-17.7v-6.5h42.9v6.5H-350.7z"/>
</g>
</svg>
