<?xml version="1.0" encoding="utf-8"?>
<!-- Generator: Adobe Illustrator 19.0.0, SVG Export Plug-In . SVG Version: 6.00 Build 0)  -->
<svg version="1.1" id="Layer_1" xmlns="http://www.w3.org/2000/svg" xmlns:xlink="http://www.w3.org/1999/xlink" x="0px" y="0px"
	 viewBox="-79 -120 800 800" style="enable-background:new -79 -120 800 800;" xml:space="preserve">
<style type="text/css">
	.st0{fill:#03203F;}
</style>
<g id="_x35_151e0c8492e5103c096af88a51eafb7">
	<path class="st0" d="M382.7,379.3c1.3,6.5,1.9,17.8,1.9,33.9v126.6h-34.9V414.5c0-14.2-1.4-24.8-4.1-31.9
		c-2.7-7-7.5-12.7-14.4-16.9c-6.9-4.2-15-6.3-24.3-6.3c-14.9,0-27.7,4.7-38.5,14.1c-10.8,9.4-16.2,27.3-16.2,53.7v112.4h-34.9V333.9
		h31.4v29.3c15.1-22.6,37-33.9,65.5-33.9c12.4,0,23.8,2.2,34.2,6.7c10.4,4.5,18.2,10.3,23.4,17.5C377,360.7,380.6,369.3,382.7,379.3
		z M720.2,541c-9.8,2.1-18.6,3.1-26.4,3.1c-12.7,0-22.5-2-29.5-6c-7-4-11.9-9.3-14.7-15.8c-2.8-6.5-4.3-20.3-4.3-41.2V356.8h-75.7
		c0.2,0.2,0.4,0.3,0.5,0.5c17.4,18.7,26.2,45.1,26.2,79.1c0,2.1-0.1,5.2-0.2,9.3H442.7c1.3,22.6,7.7,39.9,19.2,51.9
		c11.5,12,25.8,18,43,18c12.8,0,23.7-3.4,32.8-10.1c9-6.7,16.2-17.4,21.5-32.2l36,4.5c-5.7,21.1-16.2,37.4-31.6,49
		c-15.4,11.6-35,17.4-58.9,17.4c-30.1,0-54-9.3-71.6-27.8c-17.6-18.5-26.5-44.5-26.5-78c0-34.6,8.9-61.5,26.7-80.6
		c17.8-19.1,41-28.7,69.4-28.7c3.4,0,6.8,0.1,10.1,0.4h132.6v-44.7h34.7v44.7h35.1v27.1h-35.1v126.2c0,9.9,0.6,16.3,1.8,19.2
		c1.2,2.8,3.2,5.1,6,6.8c2.8,1.7,6.8,2.5,11.9,2.5c3.9,0,9-0.5,15.3-1.4L720.2,541z M559.5,417.1c-1.6-17.3-5.9-30.3-13.2-39
		c-11.1-13.4-25.5-20.2-43.2-20.2c-16,0-29.5,5.4-40.4,16.1c-10.9,10.7-17,25.1-18.1,43H559.5z M167.7,497.8
		c-6.3,0-11.7,2.2-16.1,6.8c-4.4,4.5-6.6,10-6.6,16.5c0,6.3,2.2,11.8,6.6,16.4c4.4,4.6,9.8,6.9,16.1,6.9c6.5,0,12-2.3,16.5-6.9
		c4.5-4.6,6.8-10.1,6.8-16.4c0-6.3-2.3-11.8-6.8-16.4C179.7,500.1,174.2,497.8,167.7,497.8z M391.4,297.5
		c-18.1,7.9-40.9,11.9-68.4,11.9c-48.3,0-81.8-9.3-100.4-27.9c-0.1-0.1-0.1-0.2-0.2-0.2l8.8,23.3h-91.9l-14.2-46.9H25.3l-13.9,46.9
		h-89.6L28.6,20.4h95.8l71.3,189.8l78.8-4.9c1.8,13.6,5.5,23.9,11,31c9,11.5,22,17.2,38.8,17.2c12.5,0,22.2-2.9,29-8.8
		c6.8-5.9,10.2-12.7,10.2-20.4c0-7.4-3.2-14-9.7-19.8c-6.5-5.8-21.5-11.3-45-16.5c-38.5-8.7-66-20.2-82.4-34.5
		c-16.5-14.3-24.8-32.6-24.8-54.9c0-14.6,4.2-28.4,12.7-41.4c8.5-13,21.2-23.2,38.2-30.6c17-7.4,40.3-11.1,69.9-11.1
		c36.3,0,64,6.8,83,20.3c19.1,13.5,30.4,35,34,64.4l-82.8,4.8c-2.2-12.8-6.8-22.1-13.9-27.9c-7-5.8-16.8-8.7-29.2-8.7
		c-10.2,0-17.9,2.2-23.1,6.5c-5.2,4.3-7.8,9.6-7.8,15.8c0,4.5,2.1,8.6,6.4,12.2c4.1,3.7,14,7.2,29.5,10.5
		c38.4,8.3,65.9,16.6,82.5,25.1c16.6,8.5,28.7,19,36.2,31.5c3.9,6.4,6.7,13.2,8.6,20.4V20.4H592c31.8,0,55.6,7.6,71.4,22.7
		c15.8,15.1,23.7,36.6,23.7,64.5c0,28.7-8.6,51.1-25.9,67.3c-17.3,16.2-43.6,24.2-79,24.2h-48.1v105.4H446v-70.1
		c-2.5,9.8-6.6,19.2-12.4,28C423.6,277.9,409.5,289.5,391.4,297.5z M534.2,141.6h21.5c16.9,0,28.8-2.9,35.7-8.8
		c6.8-5.9,10.3-13.4,10.3-22.6c0-8.9-3-16.5-8.9-22.7c-5.9-6.2-17.1-9.3-33.5-9.3h-25L534.2,141.6L534.2,141.6z M106.7,196.2
		L75.4,94.1l-31,102.1H106.7z"/>
</g>
</svg>
