<?xml version="1.0" encoding="utf-8"?>
<!-- Generator: Adobe Illustrator 19.0.0, SVG Export Plug-In . SVG Version: 6.00 Build 0)  -->
<svg version="1.1" id="Layer_1" xmlns="http://www.w3.org/2000/svg" xmlns:xlink="http://www.w3.org/1999/xlink" x="0px" y="0px"
	 viewBox="-673 -6.1 578.4 573.1" style="enable-background:new -673 -6.1 578.4 573.1;" xml:space="preserve">
<style type="text/css">
	.st0{fill:#03203F;}
</style>
<title>spring-icon</title>
<g id="Layer_2">
	<g id="logos">
		<path class="st0" d="M-146,27.4c-8,19.1-18.3,37.2-30.7,53.7C-286.5-32.4-467.5-35.5-581.1,74.3s-116.7,290.9-6.9,404.5
			c3.8,3.9,7.7,7.7,11.7,11.5l10.6,9.4C-445,601.4-264.7,586.1-163,465.5c39-46.3,62.3-103.7,66.6-164.1
			C-88.1,229.3-109.9,137.2-146,27.4z M-535,492.6c-8.5,10.4-23.8,12-34.2,3.5c-10.4-8.5-12-23.8-3.5-34.2
			c8.5-10.4,23.8-12,34.2-3.5C-528.3,467-526.8,482.1-535,492.6z M-147.7,407c-70.2,93.9-221.4,62-317.6,66.7c0,0-17.1,1.2-34.2,3.5
			c0,0,6.5-3,14.8-5.9c67.9-23.6,99.8-28.3,141.1-49.6c77.3-39.5,154.7-126.3,170-216c-29.5,86.2-119.2,160.6-200.7,190.7
			c-56.1,20.7-157,40.7-157,40.7l-4.1-2.4c-68.5-33.6-70.8-182.4,54.3-230.2c54.9-21.3,106.8-9.4,166.5-23.6
			c63.2-14.8,136.4-62,165.9-124C-115.9,156.7-75.7,311.4-147.7,407z"/>
	</g>
</g>
</svg>
