<?xml version="1.0" encoding="utf-8"?>
<!-- Generator: Adobe Illustrator 19.0.0, SVG Export Plug-In . SVG Version: 6.00 Build 0)  -->
<svg version="1.1" id="Layer_1" xmlns="http://www.w3.org/2000/svg" xmlns:xlink="http://www.w3.org/1999/xlink" x="0px" y="0px"
	 viewBox="-159 -40 640 640" style="enable-background:new -159 -40 640 640;" xml:space="preserve">
<style type="text/css">
	.st0{fill:#03203F;}
</style>
<path class="st0" d="M465.8-40h-609.5c-8.4,0-15.2,6.8-15.2,15.2v609.5c0,8.4,6.8,15.2,15.2,15.2h609.5c8.4,0,15.2-6.8,15.2-15.2
	V-24.8C481-33.2,474.2-40,465.8-40z M222,302h-76.2v237h-61V302H8.6v-52.5H222V302z M239,525.5v-63.4c0,0,34.6,26.1,76.1,26.1
	S355,461,355,457.4c0-39.4-117.7-39.4-117.7-126.7c0-118.7,171.4-71.9,171.4-71.9l-2.1,56.4c0,0-28.8-19.2-61.2-19.2
	s-44.2,15.4-44.2,31.9c0,42.6,118.7,38.3,118.7,124.1C420,584.1,239,525.5,239,525.5z"/>
</svg>
