<?xml version="1.0" encoding="utf-8"?>
<!-- Generator: Adobe Illustrator 19.0.0, SVG Export Plug-In . SVG Version: 6.00 Build 0)  -->
<svg version="1.1" id="Layer_1" xmlns="http://www.w3.org/2000/svg" xmlns:xlink="http://www.w3.org/1999/xlink" x="0px" y="0px"
	 viewBox="-239 41 480 480" style="enable-background:new -239 41 480 480;" xml:space="preserve">
<style type="text/css">
	.st0{fill:#03203F;}
</style>
<g>
	<path class="st0" d="M-150.2,285.2c0,63.4,36.8,118.1,90.2,144l-76.3-209.1C-145.2,240-150.2,262-150.2,285.2z M117.9,277.1
		c0-19.8-10.6-33.5-16.7-44.1c-8.1-13.3-15.8-24.4-15.8-37.5c0-14.7,14.7-28.4,30.4-28.4c0.7,0,1.3,0.1,2.1,0.1
		c-28.4-26.1-66.4-42-108-42c-53.9,0-101.5,26.7-130.5,67.5c2.3,0.7,3.1,0.4,6.1,0.4c16.7,0,42.6-2,42.6-2c8.6-0.6,9.7,12.1,1,13.2
		c0,0-8.6,1.1-18.3,1.5l59.3,177.8l35-105l-26-72.5c-8.6-0.5-16.8-1.5-16.8-1.5c-8.6-0.6-7.6-13.8,1-13.2c0,0,26.5,2,42.2,2
		c16.7,0,42.6-2,42.6-2c8.6-0.6,9.7,12.1,1,13.2c0,0-8.7,1-18.3,1.5l59,176.1l16-53.3C113.9,308.1,117.9,290.9,117.9,277.1z
		 M12.7,299.2l-48,139.5c14.4,4.3,29.5,6.5,45.2,6.5c18.6,0,36.5-3.2,53.2-9.1c-0.4-0.7-0.8-1.4-1.2-2.2L12.7,299.2z M150.2,208.4
		c0.7,5.1,1.1,10.6,1.1,16.4c0,16.3-3.1,34.5-12.2,57.4L90.4,423.5c47.6-27.7,79.5-79.3,79.5-138.3
		C169.9,257.4,162.7,231.2,150.2,208.4z"/>
	<path class="st0" d="M-190.2,285.2c0,110.2,89.7,200,200,200s200-89.8,200-200s-89.6-200-199.9-200S-190.2,175-190.2,285.2z
		 M-170.3,285.2c0-99.2,80.7-180,180-180s180.1,80.8,180.1,180s-80.7,180-180,180S-170.3,384.4-170.3,285.2z"/>
</g>
</svg>
